<?xml version="1.0" standalone="no"?>
<!DOCTYPE svg PUBLIC "-//W3C//DTD SVG 20010904//EN"
 "http://www.w3.org/TR/2001/REC-SVG-20010904/DTD/svg10.dtd">
<svg version="1.0" xmlns="http://www.w3.org/2000/svg"
 width="734.000000pt" height="734.000000pt" viewBox="0 0 734.000000 734.000000"
 preserveAspectRatio="xMidYMid meet">
<metadata>
Created by potrace 1.14, written by Peter Selinger 2001-2017
</metadata>
<g transform="translate(0.000000,734.000000) scale(0.100000,-0.100000)"
fill="#000000" stroke="none">
<path d="M827 4813 c6 -16 16 -16 29 -3 8 8 14 7 22 -3 9 -11 5 -13 -21 -14
-18 0 -56 -1 -85 -2 -30 0 -51 -5 -47 -10 8 -15 -9 -21 -25 -9 -12 8 -12 9 3
4 11 -3 16 -2 12 4 -9 14 -24 12 -41 -4 -12 -13 -12 -15 4 -20 14 -4 13 -5 -3
-4 -68 2 -85 -2 -85 -20 0 -15 -9 -19 -37 -21 -21 -1 -44 -3 -50 -3 -15 -2
-18 -18 -3 -18 6 0 10 -7 10 -15 0 -14 -22 -20 -62 -17 -10 1 -18 -3 -18 -9 0
-5 6 -7 13 -3 9 6 8 3 -1 -8 -8 -9 -26 -18 -40 -20 -19 -2 -26 -8 -24 -20 2
-13 -4 -18 -23 -18 -15 0 -24 -4 -20 -10 3 -5 1 -10 -4 -10 -6 0 -11 5 -11 12
0 6 -3 8 -7 4 -5 -4 1 -15 12 -23 20 -15 20 -15 -2 -10 -13 3 -26 1 -29 -5 -3
-5 -12 -7 -18 -5 -7 3 -13 -1 -13 -8 0 -10 5 -11 17 -5 12 6 17 5 17 -5 0 -8
-4 -12 -8 -9 -11 6 -40 -26 -34 -37 11 -17 -8 -9 -21 9 -10 13 -12 14 -12 2 3
-51 -3 -70 -22 -70 -16 0 -20 -7 -21 -32 -1 -18 -1 -36 0 -40 0 -3 -7 -5 -17
-3 -10 1 -16 9 -14 19 2 9 -2 16 -8 16 -5 0 -9 -3 -9 -7 1 -5 1 -23 0 -40 -1
-26 -5 -33 -21 -33 -17 0 -20 -7 -20 -47 0 -44 -1 -45 -18 -30 -17 16 -18 15
-19 -11 -2 -94 -8 -122 -25 -116 -15 5 -17 -17 -17 -281 0 -279 1 -290 29
-287 4 0 6 -9 7 -21 4 -98 8 -127 18 -131 6 -2 12 2 12 10 0 7 -3 11 -7 9 -4
-2 -7 2 -7 9 0 22 23 14 24 -8 2 -64 8 -93 19 -93 9 0 10 5 3 18 -7 15 -6 17
5 13 9 -3 15 -9 14 -12 0 -4 0 -24 1 -45 1 -28 4 -36 14 -30 24 15 38 12 32
-8 -4 -10 -2 -19 3 -19 5 0 7 -11 4 -25 -2 -14 -1 -25 4 -24 22 4 32 -2 37
-22 4 -15 11 -20 21 -16 12 5 16 0 16 -18 0 -13 5 -27 10 -30 6 -4 8 -11 5
-16 -4 -5 -1 -9 5 -9 7 0 10 7 6 15 -3 9 0 15 8 15 9 0 12 -7 9 -20 -4 -15 0
-20 14 -20 27 0 35 -10 22 -27 -9 -10 -5 -13 20 -13 27 0 31 -3 27 -18 -5 -15
0 -18 31 -20 21 -2 40 -5 43 -8 9 -9 6 -29 -5 -36 -5 -4 7 -8 28 -9 51 -2 54
-3 64 -13 5 -5 3 -6 -4 -2 -8 4 -13 2 -13 -6 0 -9 -3 -9 -10 2 -8 13 -10 13
-10 -1 0 -13 9 -17 34 -17 42 0 57 -8 50 -27 -5 -11 4 -13 41 -12 30 1 49 -2
52 -10 3 -7 9 -13 15 -13 5 0 7 4 3 9 -3 6 3 9 14 8 11 0 19 -4 19 -7 -2 -21
8 -27 49 -29 26 -1 51 -8 55 -14 6 -9 8 -9 8 0 0 8 14 12 40 10 42 -2 47 -6
30 -23 -7 -7 -2 -10 14 -10 14 0 23 3 20 7 -2 4 -1 9 3 12 5 2 2 2 -5 0 -7 -1
-11 1 -7 6 3 5 23 8 45 7 22 -2 40 1 40 6 0 5 4 7 8 4 4 -2 9 4 9 15 1 10 -2
19 -8 19 -5 0 -8 -3 -7 -7 2 -5 -1 -10 -7 -13 -6 -3 -10 25 -10 72 0 42 2 75
6 72 4 -2 9 -1 12 3 2 5 2 2 0 -5 -1 -7 2 -10 7 -7 16 10 11 33 -8 39 -22 7
-26 62 -6 70 9 3 11 -3 8 -20 -2 -13 0 -24 5 -24 5 0 8 23 8 50 -1 28 -5 50
-10 50 -5 0 -6 -10 -3 -22 3 -13 3 -17 0 -10 -3 6 -9 10 -12 8 -4 -2 -7 40 -7
94 0 54 3 96 6 94 4 -2 9 -1 12 3 2 5 2 2 0 -5 -1 -7 2 -10 7 -7 16 10 11 33
-8 39 -22 7 -26 62 -6 70 9 3 11 -3 8 -20 -2 -13 0 -24 5 -24 5 0 8 23 8 50
-1 28 -5 50 -10 50 -5 0 -6 -10 -3 -22 3 -13 3 -17 0 -10 -3 6 -9 10 -12 8
-10 -6 -8 136 1 152 5 6 4 12 0 12 -14 0 -13 38 1 43 7 3 13 -1 13 -9 0 -7 -5
-11 -10 -7 -5 3 -5 -2 1 -13 5 -11 8 -27 7 -36 -2 -10 0 -18 5 -18 12 0 7 94
-6 107 -6 7 -13 10 -15 8 -2 -2 -4 23 -4 55 0 32 3 57 6 54 4 -2 9 -1 12 3 2
5 2 2 0 -5 -1 -7 2 -10 7 -7 16 10 11 33 -8 39 -22 7 -26 62 -6 70 9 3 11 -3
8 -20 -2 -13 0 -24 5 -24 5 0 8 23 8 50 -1 28 -5 50 -10 50 -5 0 -6 -10 -3
-22 3 -13 3 -17 0 -10 -3 6 -9 10 -12 8 -10 -6 -8 136 1 152 5 6 4 12 0 12
-14 0 -13 38 1 43 7 3 13 -1 13 -9 0 -7 -5 -11 -10 -7 -5 3 -5 -2 1 -13 5 -11
8 -27 7 -36 -2 -10 0 -18 4 -18 4 0 8 23 7 50 0 28 -3 50 -8 50 -4 0 -8 5 -8
11 0 5 4 8 8 5 4 -2 8 76 8 175 0 98 -3 179 -6 179 -3 0 -11 -5 -16 -10 -13
-13 -13 28 -1 48 5 6 4 12 0 12 -14 0 -13 38 1 43 7 3 13 -1 13 -9 0 -7 -5
-11 -10 -7 -5 3 -5 -2 1 -13 5 -11 8 -27 7 -36 -2 -10 0 -18 5 -18 12 0 7 94
-6 107 -6 7 -13 10 -15 8 -2 -2 -4 23 -4 55 0 32 3 57 6 54 4 -2 9 -1 12 3 2
5 2 2 0 -5 -1 -7 2 -10 7 -7 17 10 11 33 -10 40 -22 7 -26 20 -8 31 7 4 8 3 4
-4 -5 -8 -1 -10 9 -5 12 4 13 8 5 13 -9 6 -9 9 1 12 9 3 8 6 -5 11 -10 4 -15
3 -11 -3 3 -6 1 -10 -6 -10 -6 0 -9 8 -6 19 4 18 -1 20 -54 20 -33 0 -57 -5
-54 -10 4 -5 1 -9 -4 -9 -6 0 -11 4 -11 8 0 4 -15 8 -34 8 -23 0 -32 -4 -29
-13z m208 -382 c0 -16 -3 -27 -7 -24 -10 6 -10 -11 -1 -21 10 -10 10 -146 1
-140 -5 3 -8 1 -8 -5 0 -5 4 -12 8 -15 12 -7 8 -84 -5 -97 -6 -6 -10 -4 -10 6
0 8 4 15 9 15 5 0 6 6 1 13 -12 20 -14 47 -2 47 6 0 7 5 2 13 -12 19 -12 67 1
67 6 0 4 5 -4 10 -11 7 -11 10 -2 10 8 0 10 5 5 13 -12 20 -14 47 -2 47 6 0 7
5 2 13 -16 25 -9 69 12 77 1 0 1 -13 0 -29z m-951 -262 c-3 -5 -10 -7 -15 -3
-5 3 -7 10 -3 15 3 5 10 7 15 3 5 -3 7 -10 3 -15z m136 -963 c0 -2 -8 -10 -17
-17 -16 -13 -17 -12 -4 4 13 16 21 21 21 13z m410 -355 c0 -4 -6 -8 -14 -8 -8
0 -12 6 -9 14 5 13 23 9 23 -6z"/>
<path d="M1381 4727 c-1 -125 -1 -134 0 -149 0 -7 0 -24 -1 -38 -1 -14 -1
-108 -1 -210 1 -233 1 -218 2 -232 0 -7 0 -26 0 -43 0 -77 9 -106 22 -72 3 9
99 12 431 12 l426 0 0 36 c0 19 -6 41 -12 48 -7 8 -8 11 -2 8 7 -4 10 100 11
349 0 344 0 354 -19 354 -22 0 -20 22 3 28 11 3 11 1 -1 -8 -12 -9 -12 -11 -1
-8 8 3 17 10 19 16 3 10 -97 12 -436 12 l-440 -1 -1 -102z m49 79 c0 -3 -4 -8
-10 -11 -5 -3 -10 -1 -10 4 0 6 5 11 10 11 6 0 10 -2 10 -4z m820 -102 c0 -8
-19 -13 -24 -6 -3 5 1 9 9 9 8 0 15 -2 15 -3z m0 -120 c0 -8 -19 -13 -24 -6
-3 5 1 9 9 9 8 0 15 -2 15 -3z m-3 -559 c0 -8 -4 -12 -9 -9 -5 3 -6 10 -3 15
9 13 12 11 12 -6z"/>
<path d="M2884 4820 c2 -16 20 -14 24 2 3 10 2 10 -6 -1 -7 -9 -11 -10 -15 -2
-4 7 -5 8 -3 1z"/>
<path d="M2922 4825 c10 -10 -14 -32 -35 -32 -9 0 -17 5 -17 11 0 6 -4 5 -9
-3 -5 -8 -16 -11 -25 -8 -9 4 -16 2 -16 -3 0 -6 -6 -9 -12 -7 -8 1 -12 -6 -10
-17 3 -18 2 -18 -14 -5 -11 8 -15 9 -10 2 4 -8 2 -13 -7 -13 -10 0 -13 -7 -10
-20 3 -12 0 -20 -6 -20 -7 0 -9 6 -5 13 4 6 0 5 -9 -3 -9 -8 -18 -26 -21 -40
-2 -14 -5 -27 -5 -30 -1 -3 -5 2 -11 10 -13 20 -19 11 -22 -37 -2 -29 -7 -40
-18 -38 -8 1 -14 10 -12 19 2 9 -1 16 -6 16 -5 0 -10 -23 -11 -51 0 -29 -5
-57 -11 -64 -8 -9 -7 -14 1 -17 8 -3 7 -7 -3 -15 -11 -10 -14 -8 -13 12 0 13
3 27 8 31 4 4 7 12 7 18 0 6 -6 2 -13 -9 -16 -24 -23 -170 -7 -160 5 3 10 1
10 -4 0 -6 -4 -11 -10 -11 -5 0 -10 -6 -10 -14 0 -9 7 -12 19 -9 16 4 18 -2
19 -44 0 -26 1 -54 1 -60 1 -7 13 -13 28 -13 14 0 23 -3 20 -7 -4 -3 -1 -13 6
-21 10 -13 9 -14 -1 -8 -12 7 -12 4 -1 -15 7 -13 12 -26 11 -29 -1 -3 1 -5 6
-5 4 0 12 -3 17 -6 6 -4 17 -5 26 -4 9 2 16 -3 16 -11 0 -10 -4 -11 -12 -4 -9
8 -14 6 -19 -5 -3 -9 -2 -14 3 -11 13 9 71 -14 68 -27 -1 -6 10 -13 24 -16 19
-5 25 -11 23 -26 -3 -17 -1 -17 16 5 18 24 19 24 13 3 -4 -19 -1 -23 18 -22
13 0 80 0 149 0 159 0 151 -1 140 19 -7 14 -5 17 13 17 60 1 67 3 67 23 0 13
7 20 20 20 14 0 20 7 20 21 0 12 4 17 11 14 6 -4 8 -14 4 -24 -5 -12 -3 -13 5
-5 9 9 9 18 -1 35 -11 22 -11 23 4 10 15 -12 17 -11 17 8 0 14 -6 21 -20 21
-15 0 -20 7 -20 26 0 18 -5 25 -17 23 -37 -3 -46 0 -34 14 11 14 5 27 -11 27
-5 0 -8 -8 -6 -17 2 -13 -5 -19 -24 -21 -16 -2 -25 -8 -23 -15 9 -23 -13 -40
-52 -41 -24 0 -40 -6 -40 -13 0 -9 4 -10 13 -2 8 6 14 6 18 0 10 -15 -3 -17
-84 -17 -54 1 -74 4 -72 14 1 6 -1 13 -5 13 -14 2 -67 9 -93 11 -15 2 -26 10
-28 21 -3 16 -1 17 17 8 17 -10 20 -9 15 4 -3 8 -10 13 -15 10 -9 -6 -31 29
-24 37 3 3 -2 5 -10 5 -11 0 -12 -4 -3 -14 6 -7 8 -16 4 -20 -3 -3 -6 0 -6 8
0 12 -2 11 -11 -1 -9 -13 -10 -13 -6 0 2 8 0 23 -5 33 -6 12 -5 17 4 17 8 1 6
6 -6 15 -10 8 -22 12 -26 10 -4 -3 -7 54 -7 125 0 111 2 129 14 119 8 -7 12
-18 9 -25 -3 -7 -1 -16 4 -19 4 -3 7 6 5 20 -1 14 1 28 5 30 5 3 6 14 3 24 -4
16 -1 19 18 14 17 -5 21 -3 17 9 -3 8 3 25 13 39 12 15 17 17 13 7 -3 -10 -1
-18 5 -18 6 0 11 9 11 20 0 15 7 20 28 21 15 1 31 1 36 0 4 -1 19 5 33 14 19
13 27 14 39 4 8 -6 14 -8 14 -3 0 4 5 3 12 -4 7 -7 17 -12 23 -12 12 1 -26 24
-39 25 -18 0 -17 22 1 22 17 0 26 -6 59 -36 8 -7 33 -14 55 -14 31 0 39 -3 39
-18 0 -17 12 -23 47 -22 7 1 11 -3 8 -7 -3 -5 -2 -10 2 -13 5 -2 2 -2 -4 -1
-7 2 -13 -1 -13 -7 0 -6 8 -9 18 -7 9 2 16 11 16 21 -1 9 5 17 13 17 8 0 11
-5 8 -12 -4 -7 3 -2 14 11 12 12 18 28 14 34 -3 5 -2 7 4 4 6 -4 17 -1 26 6
20 16 5 60 -18 51 -10 -4 -15 0 -15 15 0 20 -21 28 -55 21 -5 -1 -4 4 3 11 14
15 16 29 4 29 -5 0 -14 -10 -21 -22 l-11 -23 6 23 c6 23 7 23 -68 26 -32 1
-59 22 -29 22 11 0 18 -3 16 -6 -2 -3 4 -6 14 -6 10 0 18 5 18 11 0 7 -46 12
-131 14 -72 1 -128 -1 -124 -4z m32 -140 c-4 -8 -11 -12 -17 -8 -8 5 -7 8 1
11 7 2 9 9 6 14 -4 7 -2 8 4 4 6 -4 9 -13 6 -21z m36 10 c-7 -9 -15 -13 -17
-11 -7 7 7 26 19 26 6 0 6 -6 -2 -15z m118 0 c3 -3 -4 -5 -16 -5 -11 0 -23 4
-27 9 -6 10 33 6 43 -4z m-284 -91 c3 -8 2 -12 -4 -9 -6 3 -10 10 -10 16 0 14
7 11 14 -7z m-144 -360 c0 -2 -9 -8 -19 -14 -14 -7 -22 -7 -27 2 -4 7 -3 8 4
4 7 -4 12 -3 12 2 0 5 7 9 15 9 8 0 15 -2 15 -3z m37 -100 c2 -6 -3 -11 -10
-11 -8 0 -14 6 -14 14 0 15 19 12 24 -3z m229 -21 c-4 -4 -12 -1 -19 7 -9 10
-9 11 1 6 7 -4 12 -2 13 6 0 11 2 11 6 0 3 -7 2 -16 -1 -19z m204 -103 c0 -5
-5 -10 -11 -10 -5 0 -7 5 -4 10 3 6 8 10 11 10 2 0 4 -4 4 -10z"/>
<path d="M3469 4823 c-1 -5 -1 -12 0 -16 1 -4 -4 -17 -10 -28 -8 -15 -7 -25 3
-37 9 -13 7 -12 -10 2 -19 17 -22 17 -22 3 0 -10 6 -17 13 -17 8 0 7 -4 -3
-11 -12 -9 -11 -10 8 -6 19 4 22 1 22 -24 0 -28 2 -29 44 -29 26 0 46 5 49 13
4 10 6 10 6 0 2 -28 21 -11 21 18 0 25 3 29 18 25 16 -5 18 0 18 34 0 23 -6
42 -13 45 -11 3 -11 0 -3 -18 10 -20 10 -20 -8 2 -11 14 -18 31 -15 38 4 10
-10 13 -56 13 -34 0 -62 -3 -62 -7z m141 -83 c0 -5 -2 -10 -4 -10 -3 0 -8 5
-11 10 -3 6 -1 10 4 10 6 0 11 -4 11 -10z"/>
<path d="M640 4780 c-9 -6 -10 -10 -3 -10 6 0 15 5 18 10 8 12 4 12 -15 0z"/>
<path d="M3430 4780 c0 -5 5 -10 10 -10 6 0 10 5 10 10 0 6 -4 10 -10 10 -5 0
-10 -4 -10 -10z"/>
<path d="M3841 4774 c0 -11 3 -14 6 -6 3 7 2 16 -1 19 -3 4 -6 -2 -5 -13z"/>
<path d="M3880 4776 c7 -7 13 -7 20 0 6 6 3 10 -10 10 -13 0 -16 -4 -10 -10z"/>
<path d="M3858 4760 c-3 -9 -15 -14 -30 -13 -25 3 -26 1 -26 -55 0 -111 -2
-123 -13 -116 -8 4 -8 1 -1 -12 9 -17 6 -19 -23 -20 -31 -1 -32 0 -16 15 9 9
12 13 7 9 -15 -12 -28 -9 -20 4 4 6 3 8 -3 5 -6 -4 -10 -33 -9 -64 l1 -58 40
2 c26 2 35 0 26 -6 -11 -7 -11 -9 0 -13 10 -3 13 -53 13 -219 l1 -214 79 0
c55 0 81 4 84 13 2 6 -1 12 -8 12 -6 0 -8 -4 -5 -10 3 -5 0 -10 -8 -10 -7 0
-14 7 -14 15 0 8 4 12 9 9 4 -3 8 0 8 6 0 6 5 8 10 5 6 -3 10 1 10 9 0 19 -11
20 -30 4 -12 -11 -12 -10 -1 5 11 14 11 20 0 35 -7 9 -10 14 -5 10 17 -15 34
20 33 70 0 29 -4 52 -8 52 -4 0 -6 -13 -4 -29 2 -17 -2 -35 -10 -41 -10 -9
-13 -7 -10 7 2 10 4 20 6 23 6 13 3 46 -4 51 -5 3 -1 9 8 12 9 4 13 3 10 -3
-3 -6 -2 -10 3 -10 4 0 9 27 9 60 0 33 -3 60 -8 60 -14 0 -10 36 4 49 8 6 18
7 23 3 5 -4 1 3 -9 15 -18 21 -18 21 3 28 14 5 25 1 33 -9 9 -12 16 -13 27 -5
13 9 12 10 -2 5 -10 -3 -18 -1 -18 4 0 6 8 10 18 10 13 0 17 8 16 37 -1 21 -2
41 -3 45 -1 4 -19 5 -41 3 -22 -2 -40 1 -40 6 0 6 5 7 10 4 6 -3 10 -1 10 5 0
6 4 9 9 5 5 -3 12 -1 16 4 3 6 -5 8 -20 5 -28 -5 -27 -9 -27 103 0 40 -3 72
-7 71 -22 -2 -41 4 -36 12 3 6 1 10 -4 10 -6 0 -11 -4 -11 -10 0 -15 -38 -12
-42 3 -3 8 -6 8 -10 -3z m98 -70 c-1 -21 -6 -44 -13 -51 -9 -9 -11 -7 -8 7 2
11 4 19 6 19 1 0 3 10 4 23 1 12 -3 22 -9 22 -8 0 9 18 20 20 0 0 0 -18 0 -40z
m0 -364 c0 -13 -4 -22 -8 -19 -5 2 -8 -1 -8 -8 0 -7 -2 -10 -5 -7 -5 5 14 58
21 58 1 0 1 -11 0 -24z m4 -40 c0 -2 -8 -10 -17 -17 -16 -13 -17 -12 -4 4 13
16 21 21 21 13z m-125 -246 c3 -6 -1 -7 -9 -4 -18 7 -21 14 -7 14 6 0 13 -4
16 -10z"/>
<path d="M553 4734 c0 -7 6 -10 14 -7 7 3 13 8 13 12 0 4 -6 8 -13 8 -8 0 -14
-6 -14 -13z"/>
<path d="M2701 4694 c0 -11 3 -14 6 -6 3 7 2 16 -1 19 -3 4 -6 -2 -5 -13z"/>
<path d="M1025 4659 c2 -38 22 -78 22 -44 0 8 -5 15 -11 15 -6 0 -4 5 4 10 13
9 13 10 0 10 -13 0 -13 1 0 10 13 9 13 10 0 10 -12 0 -12 2 -2 9 11 7 11 9 -1
14 -11 4 -13 -4 -12 -34z"/>
<path d="M478 4673 c7 -3 16 -2 19 1 4 3 -2 6 -13 5 -11 0 -14 -3 -6 -6z"/>
<path d="M3326 4637 c3 -10 9 -15 12 -12 3 3 0 11 -7 18 -10 9 -11 8 -5 -6z"/>
<path d="M3470 4575 c0 -8 29 -12 39 -5 9 5 4 8 -13 8 -14 0 -26 -2 -26 -3z"/>
<path d="M3537 4563 c4 -11 8 -12 13 -3 6 9 9 9 13 -1 4 -11 6 -11 6 -1 1 8 6
10 14 6 6 -4 8 -3 4 2 -4 4 -19 9 -32 10 -16 0 -22 -3 -18 -13z"/>
<path d="M4027 4566 c-4 -10 -1 -13 8 -9 8 3 12 9 9 14 -7 12 -11 11 -17 -5z"/>
<path d="M4180 4576 c0 -2 8 -10 18 -17 15 -13 16 -12 3 4 -13 16 -21 21 -21
13z"/>
<path d="M4220 4566 c16 -16 11 -25 -12 -21 -30 6 -37 -10 -32 -74 4 -39 11
-61 24 -73 12 -10 20 -29 20 -48 0 -20 8 -39 20 -50 13 -11 21 -31 22 -54 1
-20 5 -36 10 -36 5 0 6 -11 4 -25 -3 -14 -1 -25 4 -25 5 0 8 19 6 42 -3 27 -1
37 5 27 5 -8 9 -38 9 -68 0 -45 2 -52 14 -42 21 18 26 2 24 -88 -1 -47 -5 -76
-9 -69 -5 7 -9 9 -10 3 0 -5 -4 -1 -9 10 -7 15 -9 9 -8 -25 1 -35 -2 -44 -13
-42 -11 3 -12 1 -1 -9 6 -7 12 -17 12 -23 0 -5 -9 1 -20 14 -11 13 -20 19 -20
14 0 -6 5 -15 12 -22 12 -12 -9 -16 -69 -14 -14 1 -23 -5 -23 -14 0 -12 4 -12
20 -4 16 9 18 8 14 -5 -4 -9 -9 -14 -12 -11 -2 3 -13 1 -23 -4 -12 -7 -20 -6
-25 2 -4 7 -3 8 4 4 7 -4 12 -2 12 3 0 6 -6 11 -12 11 -9 0 -8 4 2 11 13 9 13
10 0 6 -8 -2 -14 -10 -12 -16 1 -6 -2 -11 -6 -11 -4 0 -9 -26 -10 -57 -1 -44
1 -54 9 -40 6 9 7 22 4 27 -3 6 1 7 9 4 9 -3 13 -10 10 -15 -5 -9 0 -10 46
-13 11 0 20 -4 20 -8 0 -7 -5 -10 -12 -7 -22 6 -35 4 -35 -5 0 -17 63 -14 79
3 10 11 10 12 1 7 -7 -4 -13 -3 -13 2 0 5 12 10 28 11 68 2 82 5 72 15 -6 6
-10 14 -10 20 0 5 9 -1 19 -13 21 -25 20 -27 22 34 0 14 8 21 21 22 25 2 25 3
30 28 4 26 20 37 31 22 6 -8 7 -8 4 3 -2 8 -12 14 -22 12 -10 -2 -14 1 -10 7
3 6 13 11 21 11 9 0 14 11 15 33 2 58 4 62 22 59 14 -2 17 5 18 40 1 24 1 47
0 52 -1 5 5 4 13 -4 9 -7 17 -11 17 -9 3 8 8 55 10 88 2 23 8 35 21 39 13 3
18 14 18 43 0 32 3 39 20 39 17 0 20 7 20 40 0 22 5 41 10 41 6 1 15 2 20 3
16 2 12 20 -5 22 -8 1 -13 -2 -9 -7 3 -5 0 -9 -6 -9 -21 0 -4 25 18 28 22 3
28 24 22 76 -1 11 3 15 9 12 6 -4 11 -1 11 6 0 11 2 11 8 0 6 -8 9 -1 9 19 l0
32 -19 -23 c-22 -27 -24 -13 -2 18 9 13 13 26 10 29 -3 4 -6 1 -6 -6 0 -7 -5
-9 -11 -5 -19 11 -81 12 -70 1 17 -17 13 -23 -14 -23 -14 0 -25 4 -25 8 0 4
-9 0 -19 -9 -11 -9 -17 -21 -15 -27 3 -7 -5 -22 -16 -34 -11 -12 -20 -24 -20
-27 2 -66 -1 -83 -22 -92 -19 -8 -20 -10 -4 -16 11 -5 15 -3 10 5 -4 7 -3 8 4
4 20 -12 13 -28 -8 -21 -17 5 -20 2 -20 -25 0 -22 -4 -29 -12 -24 -10 6 -10 4
0 -7 19 -20 15 -29 -14 -29 -21 0 -24 4 -19 19 5 15 1 19 -14 18 -15 -1 -17
-4 -9 -14 6 -8 8 -16 4 -20 -11 -11 -18 5 -23 52 -3 25 -11 45 -17 45 -6 0 -4
5 4 10 12 8 11 10 -6 10 -17 0 -21 7 -23 43 -2 56 -5 72 -14 75 -16 5 -19 1
-7 -13 7 -9 10 -18 6 -22 -3 -3 -6 -1 -6 6 0 7 -4 10 -9 7 -5 -3 -7 9 -6 27 3
32 -17 67 -39 67 -6 0 -4 -5 4 -10 13 -8 13 -10 -1 -10 -22 0 -31 11 -19 25 6
8 2 11 -15 11 -17 0 -22 -3 -15 -10z m443 -16 c4 0 5 4 2 10 -3 6 1 7 9 4 9
-3 13 -10 10 -15 -9 -15 -31 -10 -45 9 -11 14 -11 15 1 5 8 -7 18 -13 23 -13z
m-117 -86 c-4 -9 -9 -15 -11 -12 -3 3 -3 13 1 22 4 9 9 15 11 12 3 -3 3 -13
-1 -22z m-331 -54 c3 -5 1 -10 -4 -10 -6 0 -11 5 -11 10 0 6 2 10 4 10 3 0 8
-4 11 -10z m216 -187 c13 -16 12 -17 -3 -4 -17 13 -22 21 -14 21 2 0 10 -8 17
-17z m104 -114 c11 -16 1 -19 -13 -3 -7 8 -8 14 -3 14 5 0 13 -5 16 -11z
m-365 -309 c0 -5 -4 -10 -10 -10 -5 0 -10 5 -10 10 0 6 5 10 10 10 6 0 10 -4
10 -10z"/>
<path d="M4148 4545 c-20 -26 -14 -57 8 -48 12 4 12 8 -3 19 -11 9 -13 13 -4
12 7 -2 15 7 17 20 5 27 3 27 -18 -3z"/>
<path d="M3476 4552 c2 -3 -4 -11 -14 -19 -9 -8 -11 -12 -4 -8 7 4 12 0 12
-10 0 -9 -4 -14 -8 -11 -5 3 -9 -1 -9 -9 0 -8 4 -12 9 -9 4 3 8 -2 8 -11 0 -9
-4 -14 -8 -11 -5 3 -9 -1 -9 -9 0 -8 4 -12 9 -9 4 3 8 -2 8 -11 0 -9 -4 -14
-8 -11 -5 3 -9 -1 -9 -9 0 -8 4 -12 8 -9 5 3 8 -38 7 -90 -1 -52 -5 -93 -8
-91 -4 2 -7 -2 -7 -10 0 -8 4 -12 9 -9 4 3 8 -2 8 -11 0 -9 -4 -14 -8 -11 -5
3 -9 -1 -9 -9 0 -8 4 -12 9 -9 4 3 8 -2 8 -11 0 -9 -4 -14 -8 -11 -5 3 -9 -1
-9 -9 0 -8 4 -12 8 -9 5 3 8 -17 8 -43 -2 -85 -7 -80 74 -82 40 -1 67 2 60 7
-8 5 -12 28 -12 59 1 46 4 51 22 47 11 -2 16 0 13 4 -4 4 -13 7 -19 7 -16 0
-20 105 -4 124 9 12 9 13 0 7 -10 -5 -13 5 -13 38 0 30 4 46 13 46 8 0 9 3 1
8 -15 10 -16 72 -1 72 8 0 8 3 -1 9 -8 4 -13 19 -12 32 1 13 2 38 1 55 -1 27
-4 31 -26 29 -14 -2 -27 1 -31 6 -3 5 -12 5 -23 -1 -10 -5 -22 -5 -28 -1 -5 5
-8 6 -7 3z"/>
<path d="M4072 4501 c-11 -7 -11 -9 0 -14 9 -3 15 1 15 9 0 8 -1 14 -1 14 -1
0 -7 -4 -14 -9z"/>
<path d="M3990 4445 c0 -5 5 -17 10 -25 5 -8 10 -10 10 -5 0 6 -5 17 -10 25
-5 8 -10 11 -10 5z"/>
<path d="M3721 4424 c0 -11 3 -14 6 -6 3 7 2 16 -1 19 -3 4 -6 -2 -5 -13z"/>
<path d="M3750 4430 c0 -5 5 -10 10 -10 6 0 10 5 10 10 0 6 -4 10 -10 10 -5 0
-10 -4 -10 -10z"/>
<path d="M3961 4384 c0 -11 3 -14 6 -6 3 7 2 16 -1 19 -3 4 -6 -2 -5 -13z"/>
<path d="M4187 4379 c7 -7 15 -10 18 -7 3 3 -2 9 -12 12 -14 6 -15 5 -6 -5z"/>
<path d="M156 4353 c-6 -14 -5 -15 5 -6 7 7 10 15 7 18 -3 3 -9 -2 -12 -12z"/>
<path d="M3441 4336 c-9 -11 -9 -16 1 -22 7 -4 10 -4 6 1 -4 4 -3 14 3 22 6 7
9 13 6 13 -2 0 -10 -6 -16 -14z"/>
<path d="M2785 4319 c-4 -6 -5 -12 -2 -15 2 -3 7 2 10 11 7 17 1 20 -8 4z"/>
<path d="M4570 4193 c5 -2 8 -9 5 -13 -3 -5 -1 -11 4 -14 5 -4 8 2 7 11 -2 9
-8 18 -15 19 -6 1 -7 0 -1 -3z"/>
<path d="M2984 4142 c4 -3 14 -7 22 -8 9 -1 13 0 10 4 -4 3 -14 7 -22 8 -9 1
-13 0 -10 -4z"/>
<path d="M15 4110 c3 -5 8 -10 11 -10 2 0 4 5 4 10 0 6 -5 10 -11 10 -5 0 -7
-4 -4 -10z"/>
<path d="M4312 4099 c-7 -12 -11 -24 -8 -27 3 -3 6 0 6 7 0 7 4 10 8 7 4 -2 9
4 9 15 2 24 1 24 -15 -2z"/>
<path d="M3955 4101 c-3 -5 -1 -12 5 -16 5 -3 10 1 10 9 0 18 -6 21 -15 7z"/>
<path d="M3615 4089 c-4 -6 -5 -12 -2 -15 2 -3 7 2 10 11 7 17 1 20 -8 4z"/>
<path d="M3190 4026 c0 -2 8 -10 18 -17 15 -13 16 -12 3 4 -13 16 -21 21 -21
13z"/>
<path d="M1024 3960 c0 -36 4 -46 14 -42 11 4 11 6 0 13 -10 7 -10 9 2 9 12 0
13 2 1 9 -11 7 -11 9 0 14 12 5 12 6 0 6 -10 1 -11 4 -2 15 9 10 8 15 -2 19
-10 4 -13 -7 -13 -43z"/>
<path d="M1417 3983 c-11 -17 7 -19 217 -19 153 1 200 4 202 14 2 8 0 8 -3 1
-4 -8 -8 -7 -14 2 -6 10 -9 11 -9 2 0 -7 -5 -13 -11 -13 -5 0 -8 3 -5 8 2 4
-25 7 -60 7 -37 0 -64 -4 -64 -10 0 -5 -5 -3 -10 5 -6 10 -10 11 -10 3 0 -7
-5 -13 -11 -13 -5 0 -8 4 -5 8 3 5 -1 9 -9 9 -8 0 -15 -4 -15 -9 0 -4 -5 -8
-11 -8 -5 0 -8 4 -5 8 6 10 -135 9 -151 -1 -6 -4 -13 -2 -15 5 -3 8 -6 9 -11
1z"/>
<path d="M1853 3980 c3 -12 22 -15 94 -15 50 0 89 3 86 7 -2 5 1 8 6 8 6 0 11
-3 11 -7 0 -5 38 -8 85 -9 47 0 85 4 85 9 0 5 7 4 15 -3 9 -7 15 -8 15 -2 0
14 -34 25 -38 13 -2 -6 -8 -11 -13 -11 -6 0 -8 4 -5 8 3 5 -1 9 -9 9 -8 0 -15
-4 -15 -9 0 -4 -5 -8 -11 -8 -5 0 -8 3 -6 8 3 4 -51 7 -119 7 -77 0 -124 -4
-124 -10 0 -5 -5 -3 -10 5 -9 13 -10 13 -10 0 0 -13 -1 -13 -10 0 -9 13 -10
13 -10 0 0 -13 -1 -13 -11 0 -9 13 -10 13 -6 0z"/>
<path d="M1027 3799 c7 -7 15 -10 18 -7 3 3 -2 9 -12 12 -14 6 -15 5 -6 -5z"/>
<path d="M1025 3699 c2 -38 22 -78 22 -44 0 8 -5 15 -11 15 -6 0 -4 5 4 10 13
9 13 10 0 10 -13 0 -13 1 0 10 13 9 13 10 0 10 -12 0 -12 2 -2 9 11 7 11 9 -1
14 -11 4 -13 -4 -12 -34z"/>
<path d="M4286 3727 c3 -10 9 -15 12 -12 3 3 0 11 -7 18 -10 9 -11 8 -5 -6z"/>
<path d="M1726 3618 c2 -3 -1 -8 -8 -10 -6 -2 -8 -10 -4 -17 6 -9 12 -8 23 6
14 17 14 17 9 -1 -5 -16 -2 -18 28 -14 21 2 32 0 29 -6 -4 -5 1 -7 10 -3 9 3
19 1 23 -5 4 -7 3 -8 -4 -4 -7 4 -12 2 -12 -4 0 -6 -6 -8 -12 -4 -7 4 -10 4
-6 0 3 -4 8 -7 10 -5 2 1 14 -3 27 -10 17 -10 21 -10 16 -1 -6 9 -3 9 13 1 10
-6 29 -8 41 -6 14 3 21 -1 21 -12 0 -13 -3 -13 -17 -2 -15 11 -16 11 -6 -1 16
-17 32 -20 114 -23 43 -1 70 -6 79 -16 15 -16 17 -16 -35 5 -9 4 -15 1 -15 -8
0 -17 161 -22 172 -4 6 8 8 8 8 -1 0 -7 6 -13 13 -13 16 0 18 73 3 87 -5 4 -7
2 -4 -7 3 -8 1 -24 -3 -35 l-9 -20 1 20 c2 38 -1 43 -22 38 -12 -4 -25 0 -30
8 -5 8 -9 9 -9 3 0 -15 -117 -14 -130 1 -7 8 -5 12 5 12 8 0 12 -4 10 -7 -3
-4 6 -7 19 -7 15 0 23 4 20 12 -3 7 -26 12 -59 13 -61 0 -79 7 -71 29 4 8 1
11 -5 8 -6 -4 -8 -13 -5 -21 3 -8 -1 -14 -9 -14 -8 0 -15 9 -15 19 0 18 -7 19
-75 18 -41 -1 -75 0 -75 3 0 3 -13 5 -29 5 -16 0 -27 -3 -25 -7z m184 -23 c11
-13 10 -14 -4 -9 -9 3 -16 10 -16 15 0 13 6 11 20 -6z m65 -75 c-3 -5 -12 -10
-18 -10 -7 0 -6 4 3 10 19 12 23 12 15 0z"/>
<path d="M6707 3613 c-3 -3 -3 -12 1 -21 5 -15 4 -16 -13 -2 -11 9 -16 10 -11
3 4 -8 1 -13 -9 -13 -10 0 -14 -5 -9 -12 6 -10 4 -10 -7 0 -24 22 -29 13 -29
-48 l0 -60 33 -2 c17 -1 42 -1 55 -1 21 0 22 -1 6 -18 -18 -20 -29 -25 -20
-10 3 5 0 11 -7 14 -7 3 -14 -3 -14 -14 -1 -14 4 -18 22 -17 13 1 21 6 19 10
-3 4 0 8 5 8 6 0 11 -5 11 -12 0 -17 11 -3 14 19 2 10 12 19 23 21 18 3 22 12
25 53 1 27 -1 49 -5 49 -5 0 -6 3 -3 8 2 4 -7 12 -20 19 -13 6 -22 7 -19 3 8
-12 -23 -6 -37 8 -8 8 -9 12 -1 12 6 0 13 -5 15 -12 3 -8 6 -7 10 3 6 14 -23
24 -35 12z"/>
<path d="M2633 3577 c-2 -4 -9 -5 -14 -2 -5 4 -9 1 -9 -5 0 -6 -4 -9 -8 -6 -4
2 -9 -5 -9 -17 -2 -20 -1 -20 8 -4 18 30 24 19 24 -43 0 -49 -3 -61 -17 -66
-10 -3 -18 -10 -18 -17 0 -8 3 -8 12 1 16 16 25 15 25 -3 0 -8 -4 -12 -9 -9
-4 3 -8 0 -8 -6 0 -6 -5 -8 -12 -4 -7 4 -8 3 -4 -4 4 -6 12 -9 19 -6 8 3 13
-6 13 -25 1 -26 0 -28 -13 -16 -18 19 -20 19 -20 0 0 -8 4 -12 9 -9 4 3 8 1 8
-5 0 -5 -6 -12 -12 -15 -7 -3 -4 -4 7 -1 19 4 20 0 20 -55 0 -49 -3 -61 -17
-66 -10 -3 -18 -10 -18 -17 0 -8 3 -8 12 1 16 16 25 15 25 -3 0 -8 -4 -12 -9
-9 -4 3 -8 0 -8 -6 0 -6 -5 -8 -12 -4 -7 4 -8 3 -4 -4 4 -6 12 -9 19 -6 8 3
13 -6 13 -25 1 -26 0 -28 -13 -16 -18 19 -20 19 -20 0 0 -8 4 -12 9 -9 4 3 8
1 8 -5 0 -5 -6 -12 -12 -15 -7 -3 -4 -4 7 -1 19 4 20 0 20 -55 0 -49 -3 -61
-17 -66 -10 -3 -18 -10 -18 -17 0 -8 3 -8 12 1 16 16 25 15 25 -3 0 -8 -4 -12
-9 -9 -4 3 -8 0 -8 -6 0 -6 -5 -8 -12 -4 -7 4 -8 3 -4 -4 4 -6 12 -9 19 -6 8
3 13 -6 13 -26 1 -16 -3 -30 -8 -30 -5 0 -7 4 -4 9 3 5 -1 11 -9 15 -19 7 -15
-16 5 -29 8 -5 15 -16 16 -22 3 -39 5 -44 14 -38 13 8 13 -8 0 -21 -7 -7 -6
-11 4 -11 8 0 14 3 12 6 -2 3 3 12 11 20 12 11 14 10 11 -5 -2 -14 4 -18 36
-18 45 -1 48 5 46 92 -1 31 4 61 12 70 11 13 11 14 0 8 -11 -6 -13 11 -10 90
l3 99 93 1 c50 1 92 -3 92 -7 0 -5 5 -9 11 -9 5 0 8 4 5 8 -3 5 20 8 50 8 41
-1 54 -5 55 -16 0 -10 3 -8 9 5 10 22 12 -26 10 -207 l-1 -107 28 -3 28 -4
-27 -12 c-35 -15 -37 -25 -2 -12 33 13 37 13 28 -2 -6 -10 -4 -10 7 0 7 6 17
12 22 12 4 0 5 -6 1 -12 -6 -10 -4 -10 7 0 16 14 33 16 24 2 -3 -6 1 -7 10 -3
13 4 14 8 4 14 -8 4 -10 11 -6 16 4 4 16 2 26 -4 18 -11 19 2 19 393 l1 404
-65 1 c-35 1 -72 2 -81 3 -16 1 -18 -14 -20 -163 -1 -89 -4 -165 -6 -168 -5
-4 -280 -7 -302 -2 -5 1 -13 1 -17 0 -12 -2 -9 14 5 28 10 11 10 13 0 7 -10
-5 -13 6 -13 45 0 47 1 50 18 38 16 -13 16 -13 0 7 -21 24 -24 84 -5 103 10
11 10 13 0 7 -10 -5 -13 6 -13 43 l0 49 -61 4 c-34 1 -63 0 -66 -5z m603 -35
c-17 -16 -18 -16 -5 5 7 12 15 20 18 17 3 -2 -3 -12 -13 -22z m8 -52 c-6 -6
-10 -3 -10 10 0 13 4 16 10 10 7 -7 7 -13 0 -20z m-114 -44 c0 -2 -7 -7 -16
-10 -8 -3 -12 -2 -9 4 6 10 25 14 25 6z m106 -24 c-17 -16 -18 -16 -5 5 7 12
15 20 18 17 3 -2 -3 -12 -13 -22z m14 -22 c0 -5 -5 -10 -11 -10 -5 0 -7 5 -4
10 3 6 8 10 11 10 2 0 4 -4 4 -10z m-2 -45 c-3 -3 -9 2 -12 12 -6 14 -5 15 5
6 7 -7 10 -15 7 -18z m-12 -53 c-17 -16 -18 -16 -5 5 7 12 15 20 18 17 3 -2
-3 -12 -13 -22z m8 -52 c-6 -6 -10 -3 -10 10 0 13 4 16 10 10 7 -7 7 -13 0
-20z m-416 -35 c-3 -3 -9 2 -12 12 -6 14 -5 15 5 6 7 -7 10 -15 7 -18z m80 0
c-3 -3 -9 2 -12 12 -6 14 -5 15 5 6 7 -7 10 -15 7 -18z m122 21 c0 -2 -6 -9
-14 -15 -11 -9 -16 -9 -22 0 -4 7 -3 9 4 5 6 -3 13 -2 17 4 6 10 15 14 15 6z
m206 -54 c-17 -16 -18 -16 -5 5 7 12 15 20 18 17 3 -2 -3 -12 -13 -22z m14
-22 c0 -5 -5 -10 -11 -10 -5 0 -7 5 -4 10 3 6 8 10 11 10 2 0 4 -4 4 -10z m-2
-45 c-3 -3 -9 2 -12 12 -6 14 -5 15 5 6 7 -7 10 -15 7 -18z m-12 -53 c-17 -16
-18 -16 -5 5 7 12 15 20 18 17 3 -2 -3 -12 -13 -22z m8 -52 c-6 -6 -10 -3 -10
10 0 13 4 16 10 10 7 -7 7 -13 0 -20z m-114 -44 c0 -2 -7 -7 -16 -10 -8 -3
-12 -2 -9 4 6 10 25 14 25 6z m106 -24 c-17 -16 -18 -16 -5 5 7 12 15 20 18
17 3 -2 -3 -12 -13 -22z m14 -22 c0 -5 -5 -10 -11 -10 -5 0 -7 5 -4 10 3 6 8
10 11 10 2 0 4 -4 4 -10z m-2 -45 c-3 -3 -9 2 -12 12 -6 14 -5 15 5 6 7 -7 10
-15 7 -18z m-4 -65 c-5 -5 -10 3 -11 18 -1 22 0 24 9 8 6 -10 6 -22 2 -26z
m-534 -32 c0 -8 3 -9 8 -3 11 15 29 16 29 1 0 -8 -12 -13 -32 -12 -22 1 -31 5
-28 14 3 6 9 12 14 12 5 0 9 -6 9 -12z m480 2 c0 -5 -2 -10 -4 -10 -3 0 -8 5
-11 10 -3 6 -1 10 4 10 6 0 11 -4 11 -10z"/>
<path d="M1384 3540 c1 -22 8 -46 15 -53 10 -10 12 -9 9 3 -2 9 3 14 12 11 8
-2 39 -4 69 -5 37 -2 56 -7 60 -17 6 -14 38 -20 131 -23 28 -1 36 -5 38 -23 3
-17 11 -23 40 -25 26 -2 36 -7 34 -18 -1 -10 2 -9 13 4 8 11 15 14 15 7 0 -7
5 -9 12 -5 7 4 8 3 4 -5 -4 -6 -12 -9 -17 -6 -5 4 -9 1 -9 -4 0 -9 46 -14 124
-14 18 1 17 -1 -3 -16 -25 -19 -26 -19 59 -21 30 -1 58 -7 62 -13 6 -9 8 -9 8
1 0 6 7 12 15 12 8 0 15 -8 15 -17 0 -14 -2 -15 -9 -5 -7 11 -9 11 -13 0 -5
-11 14 -14 93 -15 61 -1 99 2 99 8 0 6 -4 8 -9 4 -5 -3 -12 -1 -16 5 -4 6 -10
8 -15 5 -5 -3 -12 -1 -15 5 -4 6 -1 9 6 8 6 -2 18 12 25 30 8 19 10 32 4 32
-5 0 -10 -7 -10 -16 0 -8 -5 -12 -10 -9 -6 3 -28 7 -50 7 -27 0 -40 5 -40 14
0 8 -4 15 -10 15 -5 1 -19 3 -30 4 -11 1 -52 3 -91 4 -51 1 -68 4 -63 13 5 8
1 9 -12 5 -15 -6 -14 -3 4 11 l24 18 -54 3 c-29 2 -63 4 -75 4 -12 1 -21 3
-21 7 2 21 -6 28 -36 28 -44 0 -61 9 -47 26 8 9 1 12 -29 11 -22 -1 -40 2 -40
5 0 3 -18 4 -39 2 -21 -2 -48 1 -60 7 -12 7 -21 8 -21 3 0 -5 -7 -9 -16 -9
-15 0 -15 2 1 13 12 9 25 10 42 3 31 -11 30 -11 30 4 0 9 -29 13 -102 14
l-102 2 1 -39z m313 -25 c0 -8 -4 -12 -9 -9 -5 3 -6 10 -3 15 9 13 12 11 12
-6z m373 -119 c0 -3 -4 -8 -10 -11 -5 -3 -10 -1 -10 4 0 6 5 11 10 11 6 0 10
-2 10 -4z m47 -13 c2 -6 -9 -10 -24 -10 -15 0 -22 2 -15 4 6 3 10 8 7 13 -3 5
3 7 12 6 9 -2 18 -7 20 -13z m13 -64 c0 -4 -6 -9 -13 -12 -8 -3 -14 0 -14 7 0
7 6 13 14 13 7 0 13 -4 13 -8z m37 -15 c-3 -3 -12 -4 -19 -1 -8 3 -5 6 6 6 11
1 17 -2 13 -5z"/>
<path d="M1601 3573 c-1 -17 16 -25 25 -12 4 7 3 9 -4 5 -5 -3 -13 0 -15 6 -4
9 -6 10 -6 1z"/>
<path d="M2100 3576 c0 -2 7 -9 15 -16 9 -7 15 -8 15 -2 0 5 -7 12 -15 16 -8
3 -15 4 -15 2z"/>
<path d="M1770 3560 c0 -5 5 -10 11 -10 5 0 7 5 4 10 -3 6 -8 10 -11 10 -2 0
-4 -4 -4 -10z"/>
<path d="M2770 3556 c0 -2 8 -10 18 -17 15 -13 16 -12 3 4 -13 16 -21 21 -21
13z"/>
<path d="M1024 3480 c0 -36 4 -46 14 -42 11 4 11 6 0 13 -10 7 -10 9 2 9 12 0
13 2 1 9 -11 7 -11 9 0 14 12 5 12 6 0 6 -10 1 -11 4 -2 15 9 10 8 15 -2 19
-10 4 -13 -7 -13 -43z"/>
<path d="M2600 3520 c-13 -8 -12 -10 3 -10 9 0 17 5 17 10 0 12 -1 12 -20 0z"/>
<path d="M1870 3516 c0 -2 7 -7 16 -10 8 -3 12 -2 9 4 -6 10 -25 14 -25 6z"/>
<path d="M14 3493 c2 -9 8 -18 15 -19 6 -1 7 0 2 2 -6 3 -7 12 -4 20 3 8 1 14
-5 14 -6 0 -9 -8 -8 -17z"/>
<path d="M1814 3494 c2 -12 12 -19 29 -19 14 -1 24 2 21 7 -3 5 -9 7 -12 4 -3
-3 -13 1 -23 10 -16 14 -17 14 -15 -2z"/>
<path d="M1469 3479 c-7 -5 -9 -9 -4 -10 58 -6 72 -4 72 8 0 9 -4 10 -10 4 -6
-6 -17 -7 -27 -1 -9 5 -22 5 -31 -1z"/>
<path d="M2594 3465 c0 -19 3 -22 13 -13 10 8 10 14 2 24 -15 18 -15 18 -15
-11z"/>
<path d="M1428 3463 c7 -3 16 -2 19 1 4 3 -2 6 -13 5 -11 0 -14 -3 -6 -6z"/>
<path d="M1957 3443 c-4 -3 -7 -11 -7 -17 0 -6 5 -5 12 2 6 6 9 14 7 17 -3 3
-9 2 -12 -2z"/>
<path d="M1680 3431 c0 -10 19 -25 25 -20 1 2 -3 10 -11 17 -8 7 -14 8 -14 3z"/>
<path d="M1382 3370 l-3 -40 66 0 c48 0 64 -3 59 -12 -5 -7 -3 -8 7 -2 18 11
70 14 63 3 -8 -13 10 -11 26 4 8 6 6 2 -4 -10 l-19 -23 59 -1 c32 -1 63 -1 67
0 5 1 11 -8 14 -19 4 -16 14 -20 49 -20 23 0 46 -5 50 -12 4 -6 3 -8 -3 -5 -5
3 -10 0 -10 -7 0 -8 11 -12 26 -11 14 1 37 -4 50 -12 13 -8 20 -10 17 -4 -5 7
6 10 33 9 30 -1 41 -5 41 -17 0 -9 -3 -12 -8 -6 -4 6 -18 11 -32 12 -14 1 -19
-1 -12 -3 6 -3 12 -13 12 -22 0 -15 2 -15 10 -2 5 8 10 10 10 5 0 -9 52 -16
151 -19 26 0 35 -5 32 -14 -4 -9 -9 -9 -18 -2 -11 9 -25 4 -25 -10 0 -4 37 -6
83 -6 78 1 82 2 83 24 1 20 -7 27 -29 23 -5 -1 -6 3 -2 8 3 6 11 8 19 5 7 -3
13 2 13 11 0 10 -10 15 -34 15 -18 0 -33 5 -33 10 0 6 -5 10 -11 10 -5 0 -8
-4 -5 -8 2 -4 -6 -9 -20 -10 -13 -1 -24 3 -24 9 0 6 7 9 14 6 10 -4 13 -1 10
7 -3 7 -22 13 -47 13 -93 2 -108 3 -103 11 3 5 -1 9 -9 9 -8 0 -12 -4 -9 -9 3
-4 -4 -8 -15 -8 -23 0 -28 16 -8 23 6 2 8 8 4 13 -7 8 -21 -6 -31 -31 -2 -6
-9 -4 -17 4 -8 8 -9 11 -2 7 14 -8 28 10 14 18 -5 3 -29 7 -53 8 -28 1 -49 8
-60 20 -11 13 -30 19 -57 20 -26 0 -42 6 -45 15 -5 11 -2 13 9 9 9 -3 13 -2
10 4 -9 15 -25 12 -43 -8 -10 -9 -14 -13 -9 -8 12 17 8 27 -10 25 -30 -3 -44
1 -39 9 3 5 -1 9 -9 9 -8 0 -12 -4 -9 -8 2 -4 -11 -7 -31 -6 -25 1 -35 7 -35
18 0 13 -12 17 -56 18 -41 1 -53 -2 -48 -12 5 -9 4 -9 -7 1 -7 6 -22 12 -34
12 -18 0 -21 -7 -23 -40z m40 16 c7 4 8 2 4 -5 -9 -13 -26 -5 -25 12 0 9 2 8
6 -1 2 -6 10 -9 15 -6z m114 5 c-6 -9 -46 -22 -46 -15 0 3 10 9 23 14 29 11
29 11 23 1z m211 -116 c0 -8 -4 -12 -9 -9 -5 3 -6 10 -3 15 9 13 12 11 12 -6z
m84 -48 c-10 -9 -11 -8 -5 6 3 10 9 15 12 12 3 -3 0 -11 -7 -18z m293 -1 c-6
-14 -34 -17 -34 -4 0 5 -5 6 -12 2 -6 -4 -9 -3 -5 2 8 14 56 14 51 0z m64 -91
c-3 -3 -9 2 -12 12 -6 14 -5 15 5 6 7 -7 10 -15 7 -18z m-23 5 c3 -5 1 -10 -4
-10 -6 0 -11 5 -11 10 0 6 2 10 4 10 3 0 8 -4 11 -10z"/>
<path d="M1564 3399 c-9 -15 12 -17 30 -4 17 13 17 14 -4 12 -12 -1 -24 -5
-26 -8z"/>
<path d="M2147 3393 c3 -6 11 -9 19 -6 20 7 17 19 -5 19 -11 0 -17 -6 -14 -13z"/>
<path d="M2195 3400 c-3 -5 -1 -10 4 -10 6 0 11 5 11 10 0 6 -2 10 -4 10 -3 0
-8 -4 -11 -10z"/>
<path d="M1762 3380 c-18 -29 -15 -38 4 -12 9 13 14 25 12 27 -2 2 -9 -5 -16
-15z"/>
<path d="M2251 3363 c0 -7 -1 -16 0 -19 0 -4 -5 -10 -11 -14 -9 -5 -9 -9 -1
-14 14 -9 24 16 18 41 -3 10 -5 12 -6 6z"/>
<path d="M1890 3345 c0 -8 2 -15 4 -15 2 0 6 7 10 15 3 8 1 15 -4 15 -6 0 -10
-7 -10 -15z"/>
<path d="M5085 3341 c-6 -5 -41 -11 -80 -13 -59 -3 -70 -6 -69 -20 1 -14 -6
-18 -28 -18 -22 0 -28 4 -26 18 3 15 -6 17 -71 17 -73 0 -75 -1 -82 -28 -4
-16 -3 -25 2 -21 5 3 9 15 9 26 0 12 3 18 8 14 4 -4 7 -70 8 -147 0 -132 -2
-144 -28 -140 -8 1 -4 -26 5 -35 10 -10 9 -26 -1 -20 -4 2 -7 -13 -7 -34 0
-21 3 -36 8 -33 4 2 5 14 1 25 -3 11 -2 18 2 15 5 -3 10 8 11 24 1 16 -2 29
-8 29 -6 0 -7 5 -4 10 17 27 21 0 21 -115 -1 -69 2 -125 6 -125 5 0 8 4 8 8 0
4 9 8 20 9 11 1 20 -2 20 -8 0 -5 -4 -8 -9 -7 -5 2 -10 -1 -10 -6 -3 -18 27
-14 48 5 11 10 25 19 31 19 11 0 12 12 11 203 0 75 4 127 10 127 6 0 6 7 0 18
-7 14 -6 19 3 19 7 0 13 -7 12 -15 0 -8 4 -17 11 -19 6 -2 12 4 12 14 2 53 6
70 17 70 13 0 13 -15 1 -34 -5 -8 -3 -13 7 -13 9 0 15 3 15 8 -6 36 1 40 61
39 39 -1 60 -6 60 -14 0 -17 -17 -25 -23 -11 -2 7 -8 9 -13 5 -10 -9 16 -28
28 -21 7 5 12 -11 9 -29 -1 -5 3 -6 9 -2 6 3 8 11 5 16 -4 5 -2 9 4 9 5 0 12
-4 15 -8 3 -5 6 -95 6 -200 1 -125 5 -194 12 -198 7 -4 8 -2 4 4 -4 7 -1 12 6
12 9 0 9 3 -2 10 -12 8 -10 10 11 10 14 0 30 -5 37 -12 7 -7 12 -8 12 -2 0 6
7 11 15 11 11 0 12 -4 4 -13 -7 -8 -6 -14 2 -20 8 -4 9 -3 5 4 -4 7 -3 12 3
12 5 0 12 -6 15 -12 3 -7 3 -3 0 9 -4 17 0 22 18 25 23 3 23 3 23 190 0 103
-3 182 -7 175 -6 -9 -8 -8 -8 2 0 8 -3 11 -6 8 -4 -4 -1 -13 6 -22 10 -12 10
-15 -1 -15 -11 0 -11 -2 1 -10 10 -6 11 -10 3 -10 -7 0 -13 -5 -13 -11 0 -5 5
-7 12 -3 7 5 8 3 4 -5 -17 -27 -24 8 -27 137 -1 15 -7 22 -21 22 -15 0 -19 5
-15 20 4 16 0 20 -20 20 -20 0 -24 4 -20 20 5 18 0 20 -45 20 -30 0 -47 4 -43
10 8 13 2 13 -10 1z m-115 -35 c-7 -7 -13 -7 -20 0 -6 6 -3 10 10 10 13 0 16
-4 10 -10z m-63 -48 c-3 -8 -6 -5 -6 6 -1 11 2 17 5 13 3 -3 4 -12 1 -19z
m380 -204 c0 -7 -4 -11 -8 -8 -4 2 -9 -2 -12 -8 -3 -7 -5 -4 -4 8 1 22 24 30
24 8z m-1 -46 c4 -7 3 -8 -4 -4 -7 4 -12 3 -12 -3 0 -5 5 -11 12 -13 8 -3 7
-6 -4 -10 -11 -5 -15 -1 -13 15 4 32 8 36 21 15z m0 -60 c4 -7 3 -8 -4 -4 -7
4 -12 3 -12 -3 0 -5 6 -12 13 -14 9 -4 9 -6 0 -6 -15 -1 -26 16 -18 29 8 13
12 13 21 -2z m-5 -55 c8 -9 9 -14 2 -10 -6 4 -13 1 -16 -5 -3 -7 -4 -3 -4 10
1 26 1 26 18 5z m1 -35 c-16 -16 -15 -31 1 -22 9 6 9 4 -1 -8 -9 -11 -9 -18
-2 -21 6 -3 6 -5 -1 -3 -24 4 -15 66 9 66 3 0 1 -5 -6 -12z m-442 -72 c0 -2
-7 -9 -15 -16 -13 -11 -14 -10 -9 4 5 14 24 23 24 12z"/>
<path d="M5694 3343 c5 -10 -6 -13 -48 -13 -34 0 -56 -5 -59 -12 -4 -10 -6
-10 -6 0 -1 6 -8 12 -17 12 -14 0 -15 -2 -3 -17 13 -15 12 -15 -11 -3 -23 12
-24 12 -11 -3 12 -15 10 -17 -20 -18 -19 -1 -37 -1 -40 -1 -4 1 -6 -9 -5 -21
1 -13 -4 -21 -11 -19 -7 1 -13 -3 -13 -8 0 -5 5 -10 10 -10 6 0 10 -5 10 -11
0 -6 -7 -9 -15 -6 -19 8 -26 -5 -27 -53 0 -45 -7 -54 -28 -38 -12 8 -12 9 2 4
12 -3 15 -1 11 10 -4 11 -9 12 -19 3 -20 -16 -18 -24 11 -39 14 -7 23 -15 21
-17 -2 -3 -14 1 -26 7 -21 11 -21 10 -18 -57 3 -62 5 -68 26 -71 18 -3 22 -10
22 -39 0 -20 3 -33 7 -30 11 12 33 -14 33 -39 0 -25 24 -33 34 -11 3 6 5 -2 3
-19 -3 -30 -2 -31 37 -32 23 -1 43 -7 44 -12 2 -6 8 -10 13 -10 6 0 8 4 5 8
-3 5 1 9 8 9 7 0 13 -6 13 -13 0 -7 -4 -11 -8 -8 -4 2 -10 0 -13 -5 -4 -6 33
-9 89 -9 87 0 120 8 96 22 -5 4 -12 2 -16 -4 -4 -6 -11 -8 -16 -5 -20 13 -7
21 33 22 31 1 47 7 60 23 10 12 18 18 18 13 0 -5 -5 -14 -12 -21 -9 -9 -9 -12
0 -12 6 0 14 11 18 24 4 17 11 22 25 19 19 -5 22 -1 33 50 4 15 12 27 18 27 9
0 9 -3 0 -12 -15 -15 -16 -31 0 -26 12 4 17 22 19 86 2 39 9 47 33 43 5 -1 4
5 -4 13 -10 13 -10 16 1 16 11 0 11 2 -1 10 -13 9 -13 10 0 10 9 1 5 6 -10 16
l-25 15 25 -6 c24 -6 24 -5 5 7 -12 8 -21 26 -23 47 -1 19 -8 41 -15 50 -9 12
-9 13 1 7 7 -4 12 -1 12 8 0 9 -9 16 -20 16 -13 0 -20 7 -20 20 0 15 -7 20
-25 20 -18 0 -25 5 -25 19 0 13 -8 21 -22 23 -13 2 -23 10 -23 18 0 11 -15 16
-60 18 -32 2 -66 8 -74 15 -12 9 -13 9 -7 0z m129 -40 c-3 -7 -6 -13 -8 -13
-2 0 -5 6 -8 13 -3 8 1 14 8 14 7 0 11 -6 8 -14z m-313 -38 c0 -8 -4 -15 -9
-15 -13 0 -22 16 -14 24 11 11 23 6 23 -9z m123 -75 c4 0 6 4 3 9 -3 5 24 9
60 10 40 0 63 -3 59 -9 -9 -14 9 -12 23 2 8 8 12 8 12 1 0 -6 -7 -13 -15 -17
-15 -5 -22 -27 -7 -25 28 5 40 -3 35 -21 -5 -18 5 -25 30 -21 5 1 7 -35 6 -79
-2 -59 -7 -80 -16 -80 -11 0 -11 5 -3 20 8 16 8 18 -4 14 -9 -3 -15 -9 -14
-12 3 -25 -3 -72 -9 -71 -27 4 -44 -3 -41 -17 2 -10 -4 -19 -12 -21 -11 -3
-11 -2 -3 4 8 6 9 14 3 23 -7 10 -10 11 -10 3 0 -7 -5 -13 -11 -13 -5 0 -7 5
-3 12 4 7 3 8 -5 4 -9 -6 -9 -11 0 -22 19 -23 -12 -14 -33 10 -10 10 -18 15
-18 10 0 -6 5 -15 11 -21 9 -9 7 -11 -7 -8 -11 2 -22 4 -26 4 -5 1 -8 6 -8 12
0 5 5 7 10 4 6 -3 10 -1 10 4 0 6 -13 11 -30 11 -28 0 -35 8 -31 37 1 6 -3 14
-9 18 -5 3 -10 1 -10 -6 0 -10 -3 -10 -12 -1 -6 6 -11 37 -10 69 0 43 -1 52
-8 33 -7 -23 -8 -24 -9 -3 -1 12 4 25 9 28 6 3 10 15 10 26 0 13 6 19 16 17
10 -2 19 3 21 10 3 6 0 12 -7 12 -6 0 -8 -4 -5 -10 4 -6 -1 -7 -12 -3 -15 6
-14 8 7 17 14 6 25 18 25 26 -2 24 6 33 18 21 6 -6 15 -11 20 -11z m-222 -147
c13 -16 12 -17 -3 -4 -17 13 -22 21 -14 21 2 0 10 -8 17 -17z m576 2 c0 -8 -4
-15 -9 -15 -10 0 -11 14 -1 23 9 10 10 9 10 -8z m-557 -64 c0 -4 -9 -7 -20 -8
-19 -2 -26 8 -14 20 7 7 34 -2 34 -12z m305 -219 c-3 -3 -11 0 -18 7 -9 10 -8
11 6 5 10 -3 15 -9 12 -12z"/>
<path d="M5604 3183 c2 -9 11 -17 20 -19 17 -2 17 -2 0 17 -21 23 -23 23 -20
2z"/>
<path d="M5715 3191 c-3 -5 0 -13 6 -17 7 -4 9 -3 5 4 -3 5 0 13 6 15 9 4 10
6 1 6 -6 1 -14 -3 -18 -8z"/>
<path d="M7135 3340 c-3 -5 -33 -10 -66 -10 -51 0 -59 -2 -57 -17 2 -12 -4
-19 -19 -21 -21 -3 -28 -13 -24 -34 0 -5 -8 -8 -18 -8 -17 0 -19 -8 -19 -65 0
-36 5 -65 9 -65 5 0 9 -6 9 -14 0 -8 6 -16 14 -19 9 -4 12 -14 9 -26 -4 -15 1
-20 19 -23 12 -2 23 -10 23 -18 0 -12 15 -16 68 -18 51 -2 67 -6 67 -17 0 -8
6 -16 13 -17 6 0 17 -2 22 -3 6 -2 16 -3 23 -4 10 -1 12 -12 8 -43 -3 -24 -5
-43 -5 -44 -5 -7 -121 2 -121 9 0 5 -8 3 -17 -4 -9 -8 -14 -9 -10 -2 4 6 4 13
0 16 -5 2 -3 3 3 1 6 -1 17 1 23 6 9 5 4 8 -13 9 -49 3 -55 4 -49 14 3 5 -4 6
-18 2 -23 -7 -23 -7 -4 8 17 13 21 13 32 -2 11 -14 12 -14 10 4 -1 18 -9 21
-59 23 -36 2 -58 -2 -58 -8 0 -6 -6 -8 -12 -4 -8 5 -7 0 2 -11 13 -16 15 -16
18 -2 2 9 12 15 22 14 10 -1 16 -5 13 -10 -3 -4 -7 -6 -10 -3 -2 2 -13 -3 -22
-12 -12 -12 -15 -23 -10 -38 4 -12 5 -25 2 -28 -4 -3 0 -6 8 -6 11 0 11 -2 -1
-10 -12 -8 -11 -10 8 -10 20 0 27 -10 23 -32 -1 -7 34 -11 92 -11 9 0 17 -4
17 -9 0 -6 -7 -8 -15 -4 -9 3 -15 0 -15 -9 0 -20 19 -19 44 3 16 13 18 13 8 1
-11 -14 -5 -16 60 -17 53 0 68 2 55 9 -9 6 -22 7 -27 4 -6 -3 -7 1 -4 10 5 12
9 13 20 4 10 -8 14 -8 14 0 0 6 5 11 11 11 5 0 8 -4 5 -9 -3 -5 2 -15 12 -22
15 -13 16 -12 4 3 -11 13 -11 18 0 24 7 5 21 7 31 6 12 -2 17 3 17 18 0 14 4
19 12 14 8 -5 9 -2 4 11 -5 15 -4 16 9 5 13 -11 15 0 15 95 0 92 -2 106 -15
101 -9 -3 -18 1 -21 9 -5 11 -11 12 -27 4 -18 -8 -18 -7 3 10 l25 20 -34 -1
c-24 -1 -39 6 -53 23 l-19 24 11 -23 c10 -21 9 -23 -7 -20 -10 2 -17 12 -17
21 2 14 -5 18 -25 16 -55 -4 -71 0 -71 21 0 11 -4 20 -10 20 -5 0 -10 5 -10
11 0 5 5 7 10 4 16 -10 12 7 -5 19 -12 9 -6 12 32 14 26 2 54 8 62 15 12 9 13
9 7 0 -5 -9 -1 -13 12 -13 11 0 25 -7 32 -15 15 -18 7 -19 -23 -3 -19 10 -20
9 -9 -4 10 -13 10 -17 0 -21 -7 -2 -2 -5 12 -5 41 -1 114 -1 127 0 8 1 12 18
11 45 0 35 -4 43 -19 43 -15 0 -19 8 -20 33 0 17 -3 26 -6 20 -8 -21 -33 -15
-33 7 0 18 -7 20 -61 20 -37 0 -58 4 -54 10 3 6 4 10 1 10 -3 0 -8 -4 -11 -10z
m26 -253 c-10 -9 -11 -8 -5 6 3 10 9 15 12 12 3 -3 0 -11 -7 -18z m-111 -62
c10 -12 9 -15 -7 -15 -11 0 -20 7 -20 15 0 8 4 15 7 15 4 0 13 -7 20 -15z
m130 -46 c0 -6 -4 -7 -10 -4 -5 3 -10 11 -10 16 0 6 5 7 10 4 6 -3 10 -11 10
-16z m30 17 c0 -3 -4 -8 -10 -11 -5 -3 -10 -1 -10 4 0 6 5 11 10 11 6 0 10 -2
10 -4z"/>
<path d="M1027 3319 c7 -7 15 -10 18 -7 3 3 -2 9 -12 12 -14 6 -15 5 -6 -5z"/>
<path d="M1820 3326 c0 -2 7 -9 15 -16 13 -11 14 -10 9 4 -5 14 -24 23 -24 12z"/>
<path d="M1850 3326 c0 -2 7 -7 16 -10 8 -3 12 -2 9 4 -6 10 -25 14 -25 6z"/>
<path d="M3349 3328 c-8 -27 -5 -38 11 -38 14 0 18 -6 15 -21 -3 -12 -1 -27 2
-33 4 -6 6 -25 4 -43 -2 -29 0 -33 23 -33 23 0 26 -4 26 -39 0 -30 4 -40 20
-44 19 -5 23 -20 23 -99 0 -9 2 -17 6 -16 25 3 31 -6 31 -47 0 -37 3 -45 19
-45 16 0 19 -9 20 -60 1 -54 -1 -60 -19 -60 -12 0 -20 -6 -19 -12 1 -7 1 -28
0 -46 -1 -25 -5 -32 -18 -30 -13 2 -18 -3 -17 -18 0 -19 -6 -22 -55 -24 -31
-1 -61 -2 -67 -3 -15 -1 -17 -67 -1 -67 8 0 8 -3 -2 -9 -8 -5 -11 -16 -8 -24
4 -12 23 -15 89 -13 56 1 83 5 83 13 0 6 4 15 8 20 5 4 8 4 7 -2 -4 -20 0 -35
11 -35 6 0 8 7 5 15 -4 11 3 19 19 25 14 5 25 16 25 25 0 14 12 20 34 16 5 -1
6 7 3 19 -3 11 -1 23 4 26 5 3 7 9 4 13 -2 5 7 13 20 19 19 9 25 20 26 47 3
71 4 78 17 83 15 5 16 -10 2 -24 -7 -7 -6 -11 3 -11 15 0 15 0 18 70 1 26 6
47 11 47 5 0 7 -4 4 -9 -3 -5 2 -15 12 -22 15 -12 16 -12 6 1 -7 9 -8 23 -3
35 4 11 8 32 8 46 1 15 10 33 22 41 16 10 21 24 22 61 0 28 6 52 15 59 11 10
13 8 10 -8 -1 -10 -7 -22 -11 -25 -5 -3 -2 -9 5 -12 9 -3 14 3 15 17 5 80 8
104 14 100 12 -7 32 25 25 41 -3 8 -2 15 2 15 4 0 7 18 5 40 -2 34 1 40 18 40
11 0 17 -5 14 -10 -4 -6 -10 -8 -14 -6 -4 3 -8 -1 -8 -7 0 -7 8 -14 17 -14 12
-1 16 8 17 38 1 28 -3 39 -14 39 -8 0 -11 -4 -8 -10 3 -5 1 -10 -4 -10 -6 0
-11 5 -11 10 0 7 -25 10 -63 9 l-64 -2 -2 -41 c-2 -23 -3 -49 -3 -60 1 -21 -8
-15 -12 8 -3 21 -19 22 -22 1 -1 -8 2 -13 7 -9 5 3 9 0 9 -5 0 -6 -4 -11 -9
-11 -6 0 -11 -21 -13 -47 -2 -37 -7 -47 -19 -46 -11 2 -16 -7 -17 -35 -5 -78
-6 -79 -43 -73 -5 0 -7 6 -4 11 5 8 11 8 19 1 9 -8 13 -7 13 3 0 8 -8 13 -19
11 -10 -2 -18 1 -18 6 0 6 -9 7 -20 4 -18 -6 -20 -2 -20 38 0 42 -2 45 -22 40
-19 -4 -20 -3 -8 6 13 10 13 11 0 12 -10 0 -8 3 5 9 17 7 17 9 3 9 -14 1 -18
10 -18 46 0 38 -3 45 -20 45 -11 0 -20 6 -20 14 0 10 7 13 20 11 12 -2 18 0
15 6 -4 5 -10 7 -15 4 -5 -3 -11 -1 -15 5 -4 6 -12 7 -18 3 -7 -4 -6 1 2 10 8
10 10 21 6 25 -4 4 -10 1 -12 -5 -3 -7 -9 -13 -14 -13 -6 0 -7 5 -4 10 4 6
-15 10 -50 10 -46 0 -56 -3 -52 -14 4 -10 1 -13 -8 -9 -8 3 -12 9 -9 14 3 5 3
9 0 9 -3 0 -6 -1 -7 -2z m458 -23 c4 -4 3 -5 -4 -2 -6 4 -13 2 -15 -5 -3 -8
-6 -6 -10 4 -7 17 15 19 29 3z m-274 -79 c4 -10 1 -13 -8 -9 -8 3 -12 9 -9 14
7 12 11 11 17 -5z m-107 -28 c4 -7 3 -8 -4 -4 -7 4 -12 1 -12 -8 0 -9 -4 -16
-10 -16 -12 0 -9 22 5 32 13 10 13 10 21 -4z m81 -208 c2 -20 -8 -26 -20 -13
-4 3 -2 12 4 20 15 17 14 17 16 -7z m24 -103 c-10 -9 -11 -8 -5 6 3 10 9 15
12 12 3 -3 0 -11 -7 -18z m16 -164 c0 -7 -4 -13 -8 -13 -4 0 -9 6 -12 13 -3 8
0 14 7 14 7 0 13 -6 13 -14z m116 -38 c4 3 5 2 2 -2 -12 -15 -31 -10 -31 9 0
17 2 17 12 4 6 -9 14 -14 17 -11z m-160 -50 c-3 -9 -8 -14 -10 -11 -3 3 -2 9
2 15 9 16 15 13 8 -4z m-133 -110 c-7 -9 -15 -13 -19 -10 -3 3 1 10 9 15 21
14 24 12 10 -5z"/>
<path d="M4012 3274 c-1 -41 1 -53 11 -48 9 6 9 4 1 -7 -7 -8 -11 -53 -10
-106 1 -54 -3 -95 -9 -97 -7 -3 -7 -5 0 -5 6 -1 9 -38 8 -96 -2 -70 0 -94 9
-89 8 5 8 3 2 -7 -9 -14 -16 -282 -8 -307 2 -7 9 -10 14 -7 8 5 8 11 1 19 -8
9 -7 13 4 13 7 0 14 -3 13 -6 -3 -29 5 -32 65 -29 l63 3 1 92 c2 72 -1 92 -12
97 -8 3 -15 11 -15 18 0 10 2 10 9 -1 5 -7 13 -11 19 -7 12 7 4 46 -10 46 -5
0 -7 -4 -4 -8 2 -4 -5 -9 -17 -9 -19 -2 -18 0 7 16 15 10 27 21 27 25 -3 19 1
23 23 19 18 -4 23 -10 19 -22 -5 -13 -3 -13 8 2 16 20 52 18 72 -3 10 -10 9
-11 -3 -4 -22 12 -51 12 -47 0 2 -7 39 -12 92 -13 76 -2 85 0 69 12 -14 10
-21 10 -26 2 -6 -9 -8 -9 -8 0 0 16 17 26 25 13 3 -5 13 -10 21 -10 8 0 12 5
9 10 -4 6 -3 10 2 9 4 -1 23 -1 41 0 25 1 32 5 32 21 0 15 7 20 26 20 21 0 24
3 16 13 -8 9 -6 16 8 25 14 9 19 9 23 -1 3 -10 7 28 10 110 1 12 3 21 7 21 34
-3 40 17 13 39 -17 14 -17 14 0 9 22 -7 22 7 -1 28 -14 12 -19 32 -21 73 -2
53 -14 78 -33 67 -4 -3 -9 5 -10 18 0 13 -1 30 -2 38 -1 8 -8 15 -16 16 -37 2
-41 5 -34 17 5 8 2 8 -9 -2 -15 -12 -17 -11 -17 8 0 20 -4 21 -125 21 -118 0
-125 -1 -125 -20 0 -13 -7 -20 -20 -20 -22 0 -26 10 -10 26 6 6 -24 10 -83 11
l-93 1 -2 -54z m38 29 c0 -15 -2 -16 -10 -3 -8 12 -10 12 -10 1 0 -8 -3 -12
-6 -8 -8 7 4 27 17 27 5 0 9 -8 9 -17z m124 4 c-5 -15 -44 -20 -44 -6 0 6 4 8
8 5 4 -2 14 -1 22 5 19 12 20 11 14 -4z m360 -42 c-7 -16 -24 -21 -24 -6 0 8
7 13 27 20 1 1 0 -6 -3 -14z m-489 -25 c3 -6 -1 -7 -9 -4 -18 7 -21 14 -7 14
6 0 13 -4 16 -10z m198 -41 c7 5 41 8 77 8 62 -2 65 -3 62 -26 -3 -21 -1 -23
22 -17 16 4 26 2 26 -4 0 -6 8 -10 18 -8 15 3 17 -8 19 -102 1 -58 0 -100 -3
-93 -9 20 -34 3 -34 -23 0 -24 -18 -30 -74 -24 -11 1 -16 -3 -11 -9 3 -6 10
-9 15 -6 4 3 10 -1 13 -8 3 -7 -3 -13 -13 -13 -10 0 -17 3 -14 7 2 4 -4 10
-14 14 -28 13 -42 14 -42 4 0 -6 7 -9 16 -7 10 2 19 -1 20 -7 2 -5 -13 -11
-34 -11 -20 -1 -29 1 -20 3 28 7 9 33 -24 33 -25 0 -29 3 -25 19 3 12 -3 27
-16 38 -20 18 -20 18 -7 -7 12 -23 11 -24 -5 -9 -13 13 -17 33 -16 90 1 93 4
112 22 117 8 2 10 0 4 -5 -14 -12 -17 -33 -4 -33 6 0 13 9 16 20 5 20 13 23
43 21 11 0 11 1 2 5 -10 5 -10 9 -1 20 9 11 9 14 0 14 -6 0 -14 -7 -17 -15 -9
-22 -20 -18 -21 8 0 12 1 16 4 9 3 -8 9 -10 16 -3z m171 -5 c3 -8 2 -12 -4 -9
-6 3 -10 1 -10 -6 0 -7 -2 -10 -5 -7 -5 5 4 38 10 38 2 0 6 -7 9 -16z m-375
-50 c-6 -8 -15 -12 -18 -8 -3 4 0 9 7 11 6 3 9 10 6 15 -4 7 -2 8 5 4 9 -6 9
-11 0 -22z m0 -80 c-6 -8 -15 -12 -18 -8 -3 4 0 9 7 11 6 3 9 10 6 15 -4 7 -2
8 5 4 9 -6 9 -11 0 -22z m131 -19 c0 -7 -30 -13 -34 -7 -3 4 4 9 15 9 10 1 19
0 19 -2z m445 -33 c-3 -3 -11 0 -18 7 -9 10 -8 11 6 5 10 -3 15 -9 12 -12z
m-571 -67 c3 -8 1 -15 -4 -15 -6 0 -10 7 -10 15 0 8 2 15 4 15 2 0 6 -7 10
-15z m-4 -60 c0 -5 -5 -3 -10 5 -5 8 -10 20 -10 25 0 6 5 3 10 -5 5 -8 10 -19
10 -25z m540 19 c0 -8 -19 -13 -24 -6 -3 5 1 9 9 9 8 0 15 -2 15 -3z m-535
-64 c3 -6 -1 -7 -9 -4 -18 7 -21 14 -7 14 6 0 13 -4 16 -10z m120 -49 c-3 -6
-11 -11 -16 -11 -5 0 -4 6 3 14 14 16 24 13 13 -3z m163 -26 c-3 -3 -9 2 -12
12 -6 14 -5 15 5 6 7 -7 10 -15 7 -18z m-289 -101 c-6 -8 -15 -12 -18 -8 -3 4
0 9 7 11 6 3 9 10 6 15 -4 7 -2 8 5 4 9 -6 9 -11 0 -22z m128 0 c-3 -3 -12 -4
-19 -1 -8 3 -5 6 6 6 11 1 17 -2 13 -5z m-128 -80 c-6 -8 -15 -12 -18 -8 -3 4
0 9 7 11 6 3 9 10 6 15 -4 7 -2 8 5 4 9 -6 9 -11 0 -22z m126 15 c11 -16 1
-19 -13 -3 -7 8 -8 14 -3 14 5 0 13 -5 16 -11z m-15 -13 c0 -3 -4 -8 -10 -11
-5 -3 -10 -1 -10 4 0 6 5 11 10 11 6 0 10 -2 10 -4z m15 -26 c3 -5 1 -10 -4
-10 -6 0 -11 5 -11 10 0 6 2 10 4 10 3 0 8 -4 11 -10z m-5 -38 c-21 -7 -23 -6
-26 10 -2 14 1 15 17 5 11 -7 15 -13 9 -15z"/>
<path d="M4356 3187 c3 -10 9 -15 12 -12 3 3 0 11 -7 18 -10 9 -11 8 -5 -6z"/>
<path d="M4450 3141 c0 -7 -4 -9 -10 -6 -5 3 -10 1 -10 -4 0 -6 4 -11 9 -11
13 0 25 20 17 27 -3 4 -6 1 -6 -6z"/>
<path d="M6181 3323 c3 -18 -2 -34 -8 -30 -16 10 -53 -12 -47 -28 4 -10 0 -15
-15 -15 -24 0 -27 -10 -8 -29 10 -11 9 -13 -1 -7 -9 6 -12 -9 -11 -63 1 -39 4
-70 8 -69 21 2 31 -4 29 -19 -2 -13 7 -19 37 -24 22 -4 43 -5 48 -2 4 2 7 -3
7 -12 0 -10 -5 -13 -12 -9 -7 4 -8 3 -4 -5 5 -7 18 -11 29 -10 46 3 51 1 36
-18 -13 -17 -13 -17 7 0 23 19 59 23 69 6 4 -6 14 -8 22 -5 8 4 11 1 8 -5 -4
-6 -13 -8 -21 -5 -8 3 -14 -1 -14 -8 0 -9 7 -12 21 -9 18 5 20 2 16 -36 -2
-23 -8 -40 -13 -39 -5 1 -8 9 -7 18 2 9 0 10 -3 2 -3 -6 -10 -10 -15 -7 -5 4
-6 -1 -3 -10 5 -13 -3 -15 -52 -12 -47 2 -58 6 -56 19 2 16 -23 32 -38 23 -4
-2 -7 5 -6 18 1 20 -4 22 -46 24 -47 2 -48 1 -48 -28 0 -16 -4 -29 -10 -29 -5
0 -10 -5 -10 -11 0 -5 5 -7 10 -4 9 5 15 -23 11 -47 0 -5 8 -8 19 -8 13 0 20
-7 20 -20 0 -20 21 -26 73 -21 15 2 22 -9 18 -32 -1 -4 35 -6 79 -5 63 1 80 5
75 15 -7 19 24 29 38 13 10 -10 8 -12 -5 -7 -10 4 -18 2 -18 -4 0 -6 8 -9 18
-7 9 2 16 10 14 16 -1 7 9 12 22 12 18 0 25 6 28 23 2 14 9 21 20 19 13 -2 17
8 20 55 4 80 -4 147 -20 151 -7 1 -21 4 -32 5 -11 2 -22 6 -26 10 -4 3 2 5 13
3 12 -3 20 1 20 9 0 7 -7 14 -16 14 -13 0 -61 4 -113 10 -5 1 -8 6 -8 12 0 8
6 7 18 -2 15 -13 16 -12 3 4 -9 11 -27 17 -52 17 -32 0 -39 3 -39 20 0 17 -9
24 -31 22 -3 -1 -5 9 -4 21 1 12 7 23 13 23 7 1 19 2 28 3 9 1 12 6 8 14 -6 9
-5 9 7 0 8 -7 34 -14 56 -15 37 -3 41 -6 40 -28 -2 -21 2 -24 21 -22 13 2 31
-2 40 -10 13 -11 14 -11 8 0 -6 11 -1 13 25 10 34 -3 34 -3 35 42 1 51 -5 68
-17 49 -4 -8 -3 -20 4 -29 10 -13 10 -13 -5 -2 -10 8 -17 17 -16 20 4 33 -4
52 -22 52 -13 0 -20 7 -20 19 0 18 -9 19 -125 20 -69 1 -125 -2 -124 -6z m146
-88 c0 -8 -4 -12 -9 -9 -5 3 -6 10 -3 15 9 13 12 11 12 -6z m159 -50 c1 -8 -2
-15 -6 -15 -5 0 -8 9 -7 20 1 21 10 18 13 -5z m-363 -260 c-3 -9 -8 -14 -10
-11 -3 3 -2 9 2 15 9 16 15 13 8 -4z m47 -5 c0 -5 -2 -10 -4 -10 -3 0 -8 5
-11 10 -3 6 -1 10 4 10 6 0 11 -4 11 -10z m93 -143 c3 -8 -1 -14 -8 -14 -7 0
-11 6 -8 14 3 7 6 13 8 13 2 0 5 -6 8 -13z m86 0 c8 -10 7 -14 -2 -14 -8 0
-14 6 -14 14 0 7 1 13 2 13 2 0 8 -6 14 -13z"/>
<path d="M6642 3314 c-7 -8 -8 -14 -2 -14 5 0 10 -5 10 -11 0 -5 -4 -8 -8 -5
-5 3 -9 -13 -10 -34 -1 -22 2 -40 6 -40 4 0 13 -9 19 -19 10 -15 9 -20 -2 -25
-9 -3 -12 0 -9 8 3 8 1 17 -4 20 -5 3 -9 -28 -9 -74 0 -44 3 -80 8 -80 5 0 9
-7 9 -16 0 -9 6 -14 13 -11 8 3 13 -3 13 -15 0 -18 -3 -17 -23 7 -20 22 -23
23 -23 7 0 -10 11 -25 25 -32 13 -7 22 -17 18 -23 -3 -5 -10 -2 -15 7 -17 30
-27 17 -26 -34 0 -27 4 -50 9 -50 5 0 9 -5 9 -11 0 -5 -4 -7 -10 -4 -5 3 -10
1 -10 -4 0 -6 5 -11 10 -11 6 0 10 -5 10 -11 0 -5 -4 -7 -10 -4 -5 3 -10 -1
-10 -9 0 -9 4 -16 9 -16 15 0 33 29 25 41 -4 7 -3 9 3 6 6 -4 11 -18 11 -33 0
-14 -3 -22 -7 -16 -4 7 -13 5 -25 -4 -19 -13 -18 -14 8 -14 21 0 27 -4 23 -15
-4 -8 -2 -17 4 -20 5 -4 9 -3 8 2 -3 20 2 29 21 30 11 1 20 -2 20 -8 0 -5 -4
-8 -9 -7 -5 2 -10 -1 -10 -6 -2 -13 28 -16 35 -4 4 6 10 5 16 -3 8 -11 9 -11
5 1 -2 8 -10 14 -16 12 -7 -1 -10 2 -6 8 3 5 17 10 31 10 16 0 24 6 24 18 0
14 -2 15 -10 2 -5 -8 -10 -10 -10 -4 0 6 3 14 8 18 12 13 11 199 -2 215 -8 11
-8 13 0 8 16 -9 15 185 0 195 -7 5 -3 8 9 8 20 1 20 1 1 15 -11 8 -14 15 -8
15 7 0 12 4 12 9 0 5 -6 8 -12 7 -7 0 -13 4 -13 9 0 6 6 9 13 7 8 -2 11 1 7 7
-8 14 -125 14 -125 1 0 -5 5 -10 11 -10 8 0 8 -5 -1 -15 -7 -8 -9 -15 -4 -15
5 0 2 -5 -6 -10 -12 -8 -13 -11 -1 -19 8 -5 9 -11 3 -15 -15 -9 -23 23 -12 45
6 11 7 25 3 33 -7 12 -10 12 -21 0z m36 -119 c-3 -3 -9 2 -12 12 -6 14 -5 15
5 6 7 -7 10 -15 7 -18z m-8 -50 c-9 -11 -9 -15 -1 -15 7 0 9 -5 5 -11 -4 -8
-10 -6 -17 6 -7 12 -5 20 4 26 20 13 23 11 9 -6z m10 -63 c0 -1 -9 2 -20 8
-11 6 -20 15 -20 20 0 6 9 2 20 -7 11 -10 20 -19 20 -21z m-15 -22 c-3 -5 0
-10 7 -12 8 -3 9 -6 1 -11 -5 -3 -15 5 -21 18 -9 20 -9 23 3 18 8 -3 13 -9 10
-13z m15 -138 c0 -1 -9 2 -20 8 -11 6 -20 15 -20 20 0 6 9 2 20 -7 11 -10 20
-19 20 -21z m-15 -22 c-3 -5 0 -10 7 -12 8 -3 9 -6 1 -11 -5 -3 -15 5 -21 18
-9 20 -9 23 3 18 8 -3 13 -9 10 -13z m111 -30 c0 -12 -4 -16 -9 -11 -5 5 -6
14 -3 20 10 15 12 14 12 -9z"/>
<path d="M1477 3313 c-10 -9 -9 -23 1 -23 5 0 9 7 9 15 0 17 -1 18 -10 8z"/>
<path d="M1526 3305 c6 -14 46 -17 42 -3 -2 6 -14 12 -25 13 -12 1 -19 -3 -17
-10z"/>
<path d="M2020 3300 c8 -5 20 -10 25 -10 6 0 3 5 -5 10 -8 5 -19 10 -25 10 -5
0 -3 -5 5 -10z"/>
<path d="M2600 3280 c-13 -8 -12 -10 3 -10 9 0 17 5 17 10 0 12 -1 12 -20 0z"/>
<path d="M3347 3265 c3 -8 9 -12 14 -9 12 7 11 11 -5 17 -10 4 -13 1 -9 -8z"/>
<path d="M4731 3256 c-8 -10 -9 -16 -1 -21 5 -3 10 -11 10 -16 0 -6 -3 -8 -8
-5 -4 2 -7 -13 -7 -34 0 -21 3 -36 8 -33 4 2 5 14 1 25 -3 11 -2 18 2 15 5 -3
10 8 11 24 1 16 -3 29 -9 29 -7 0 -6 5 2 15 7 8 10 15 7 15 -2 0 -10 -6 -16
-14z"/>
<path d="M1025 3185 c0 -57 3 -71 13 -67 11 4 11 6 0 13 -10 7 -10 9 2 9 12 0
13 2 1 9 -11 7 -11 9 0 14 11 4 11 6 -1 6 -13 1 -13 2 0 11 13 9 13 10 0 10
-13 0 -13 1 0 10 13 9 13 10 0 10 -13 0 -13 1 0 10 13 9 13 10 0 10 -12 0 -12
2 -2 9 11 7 11 9 0 13 -10 4 -13 -10 -13 -67z"/>
<path d="M1383 3204 c-1 -35 2 -44 15 -45 9 0 40 -1 67 -2 40 -2 50 -5 49 -18
-2 -20 40 -19 59 1 10 10 8 10 -10 1 -28 -14 -30 -14 -36 3 -4 11 5 13 43 12
27 -1 52 -5 56 -9 4 -3 -3 -5 -14 -2 -11 2 -23 -2 -26 -10 -3 -9 5 -13 27 -14
104 -3 116 -5 105 -18 -6 -7 -9 -14 -7 -14 6 -2 62 -9 93 -12 17 -2 32 -10 34
-18 3 -11 1 -11 -7 1 -8 11 -11 12 -11 2 0 -7 -5 -10 -12 -6 -6 4 -8 3 -5 -3
3 -5 32 -11 64 -12 60 -2 68 -5 68 -24 0 -13 17 -16 123 -19 51 -1 76 -6 85
-17 6 -8 7 -12 1 -8 -6 3 -23 8 -39 11 -22 4 -26 3 -16 -7 7 -7 44 -12 89 -13
l77 -1 1 38 c1 29 -3 38 -17 42 -12 3 -17 1 -12 -5 4 -7 1 -8 -8 -2 -8 5 -36
9 -63 9 -35 1 -51 5 -54 15 -3 13 -2 13 7 0 10 -13 11 -13 11 0 0 12 2 13 9 1
7 -11 9 -11 13 0 4 12 7 12 22 0 14 -12 16 -12 10 2 -4 11 -18 15 -47 15 -131
-2 -157 2 -157 20 0 12 -8 18 -22 19 -13 1 -42 2 -66 3 -36 2 -40 4 -26 15 16
11 16 12 0 18 -10 4 -15 3 -11 -3 3 -6 2 -10 -4 -10 -5 0 -11 4 -13 10 -1 5
-27 11 -55 12 -29 1 -53 6 -53 11 0 4 6 5 13 2 6 -4 4 0 -6 8 -14 11 -15 16
-5 20 7 3 -4 6 -25 6 -28 1 -36 5 -31 14 6 10 4 10 -7 0 -16 -16 -65 -17 -75
-2 -4 7 0 9 14 5 23 -8 39 8 21 20 -8 4 -9 3 -5 -4 8 -13 -6 -16 -18 -5 -12
13 -109 13 -125 0 -12 -9 -13 -9 -8 0 6 9 -4 12 -36 11 l-43 0 -1 -44z m139
22 c7 4 8 2 4 -5 -9 -13 -26 -5 -25 12 0 9 2 8 6 -1 2 -6 10 -9 15 -6z m51 -1
c-2 -7 -10 -12 -17 -12 -7 0 -13 5 -13 12 0 6 8 11 18 11 9 0 15 -5 12 -11z
m-143 -5 c0 -5 -2 -10 -4 -10 -3 0 -8 5 -11 10 -3 6 -1 10 4 10 6 0 11 -4 11
-10z m330 -114 c0 -2 -7 -7 -16 -10 -8 -3 -12 -2 -9 4 6 10 25 14 25 6z m194
-17 c-3 -5 -10 -7 -15 -3 -5 3 -7 10 -3 15 3 5 10 7 15 3 5 -3 7 -10 3 -15z
m-85 -22 c8 -10 7 -14 -2 -14 -8 0 -14 6 -14 14 0 7 1 13 2 13 2 0 8 -6 14
-13z m107 -39 c4 -7 3 -8 -4 -4 -7 4 -12 2 -12 -3 0 -6 -4 -11 -10 -11 -5 0
-7 7 -4 15 7 18 20 19 30 3z m208 -43 c-4 -8 -8 -15 -10 -15 -2 0 -4 7 -4 15
0 8 4 15 10 15 5 0 7 -7 4 -15z m59 -3 c-4 -10 -8 -11 -13 -2 -5 9 -9 9 -14 1
-4 -6 -12 -11 -19 -11 -6 0 -3 6 7 13 24 18 46 17 39 -1z"/>
<path d="M2196 3238 c3 -5 10 -6 15 -3 13 9 11 12 -6 12 -8 0 -12 -4 -9 -9z"/>
<path d="M2594 3225 c0 -19 3 -22 13 -13 10 8 10 14 2 24 -15 18 -15 18 -15
-11z"/>
<path d="M4567 3239 c7 -7 15 -10 18 -7 3 3 -2 9 -12 12 -14 6 -15 5 -6 -5z"/>
<path d="M1740 3201 c0 -6 4 -13 10 -16 6 -3 7 1 4 9 -7 18 -14 21 -14 7z"/>
<path d="M5276 3197 c3 -10 9 -15 12 -12 3 3 0 11 -7 18 -10 9 -11 8 -5 -6z"/>
<path d="M6237 3183 c3 -7 6 -13 8 -13 2 0 5 6 8 13 3 8 -1 14 -8 14 -7 0 -11
-6 -8 -14z"/>
<path d="M6344 3183 c2 -10 6 -17 10 -16 15 3 16 11 2 22 -12 10 -14 9 -12 -6z"/>
<path d="M4607 3145 c3 -8 9 -12 14 -9 12 7 11 11 -5 17 -10 4 -13 1 -9 -8z"/>
<path d="M2056 3137 c3 -10 9 -15 12 -12 3 3 0 11 -7 18 -10 9 -11 8 -5 -6z"/>
<path d="M3690 3140 c0 -5 5 -10 10 -10 6 0 10 5 10 10 0 6 -4 10 -10 10 -5 0
-10 -4 -10 -10z"/>
<path d="M3865 3141 c-3 -5 -2 -12 3 -15 5 -3 9 1 9 9 0 17 -3 19 -12 6z"/>
<path d="M4730 3125 c-11 -13 -10 -14 4 -9 9 3 16 10 16 15 0 13 -6 11 -20 -6z"/>
<path d="M4604 3109 c-3 -6 1 -18 10 -27 10 -11 16 -12 16 -4 0 7 -5 12 -11
12 -8 0 -8 5 1 15 8 9 9 15 2 15 -6 0 -14 -5 -18 -11z"/>
<path d="M5990 3111 c0 -5 5 -13 10 -16 6 -3 10 -2 10 4 0 5 -4 13 -10 16 -5
3 -10 2 -10 -4z"/>
<path d="M1985 3100 c-3 -6 1 -7 9 -4 18 7 21 14 7 14 -6 0 -13 -4 -16 -10z"/>
<path d="M2770 3102 c0 -14 27 -28 37 -18 4 3 1 12 -5 18 -9 9 -12 9 -12 -2 0
-13 -2 -13 -10 0 -7 10 -10 11 -10 2z"/>
<path d="M2840 3100 c0 -5 5 -10 10 -10 6 0 10 5 10 10 0 6 -4 10 -10 10 -5 0
-10 -4 -10 -10z"/>
<path d="M2900 3100 c0 -5 5 -10 10 -10 6 0 10 5 10 10 0 6 -4 10 -10 10 -5 0
-10 -4 -10 -10z"/>
<path d="M2995 3101 c-6 -11 13 -26 22 -17 4 3 1 6 -6 6 -7 0 -9 5 -6 10 3 6
4 10 1 10 -3 0 -7 -4 -11 -9z"/>
<path d="M4734 3098 c-13 -19 -11 -51 4 -54 7 -1 8 0 2 3 -8 3 -7 9 1 19 9 11
9 14 -1 14 -10 0 -10 3 0 15 7 8 10 15 7 15 -2 0 -9 -6 -13 -12z"/>
<path d="M6930 3089 c0 -11 4 -18 10 -14 5 3 7 12 3 20 -7 21 -13 19 -13 -6z"/>
<path d="M3030 3096 c0 -2 7 -7 16 -10 8 -3 12 -2 9 4 -6 10 -25 14 -25 6z"/>
<path d="M1385 3070 c3 -5 2 -10 -3 -10 -14 0 -1 -58 14 -64 7 -3 16 -2 18 3
3 4 28 5 55 1 28 -3 59 -6 70 -5 11 1 23 -5 26 -13 4 -10 0 -12 -10 -8 -9 3
-13 2 -10 -4 7 -11 33 -9 53 3 7 5 12 4 12 -2 0 -7 24 -11 58 -11 54 0 59 -2
58 -21 -1 -12 5 -24 12 -26 6 -3 12 0 12 7 0 6 -5 8 -11 4 -8 -4 -8 0 0 15 13
23 23 29 16 9 -9 -24 11 -37 62 -40 28 -2 49 -6 46 -10 -2 -5 -13 -8 -23 -8
-10 0 -21 -4 -24 -8 -6 -11 36 -9 53 2 10 6 12 6 7 -2 -5 -8 6 -12 36 -12 31
0 39 -3 28 -10 -9 -6 -10 -10 -3 -10 6 0 15 5 19 11 4 8 9 7 15 -2 5 -9 2 -16
-9 -21 -12 -5 -8 -7 13 -7 70 2 96 -1 89 -12 -5 -8 -1 -8 13 0 14 7 24 7 33
-2 10 -9 11 -9 6 1 -4 6 -2 12 3 12 6 0 11 -8 11 -18 0 -10 7 -19 15 -19 8 0
15 4 15 9 0 4 -4 8 -10 8 -5 0 -10 4 -10 9 0 5 8 8 18 6 9 -1 16 -9 14 -19 -2
-9 2 -16 8 -16 9 0 14 14 11 33 -1 5 3 6 8 2 6 -3 8 -11 5 -18 -3 -8 6 -12 24
-12 25 -1 28 3 27 30 -1 16 -3 35 -3 41 -1 6 -24 9 -54 8 -43 -1 -49 1 -30 9
30 14 28 25 -5 24 -16 0 -65 1 -110 2 -73 1 -83 3 -83 19 0 10 6 24 13 32 10
12 9 12 -3 3 -13 -9 -57 -9 -114 1 -11 1 -22 9 -24 17 -3 11 -1 11 8 -1 10
-13 11 -13 7 0 -2 10 -19 16 -53 18 -91 5 -92 5 -87 20 5 11 7 11 14 0 7 -10
9 -10 9 2 0 13 1 13 11 0 8 -12 10 -12 7 -1 -5 17 -25 21 -98 22 -39 0 -51 3
-40 9 8 5 10 10 5 10 -6 0 -16 -5 -23 -12 -9 -9 -12 -8 -12 5 0 9 8 17 18 18
11 0 12 2 4 6 -16 6 -44 -16 -35 -30 3 -6 1 -7 -5 -3 -6 4 -9 13 -5 21 4 13
-11 15 -92 15 -61 0 -94 -4 -90 -10z m156 -23 c-10 -9 -11 -8 -5 6 3 10 9 15
12 12 3 -3 0 -11 -7 -18z m-134 -2 c0 -8 -4 -15 -9 -15 -10 0 -11 14 -1 23 9
10 10 9 10 -8z m183 -61 c0 -8 -4 -12 -10 -9 -5 3 -10 10 -10 16 0 5 5 9 10 9
6 0 10 -7 10 -16z m38 -9 c-3 -3 -9 2 -12 12 -6 14 -5 15 5 6 7 -7 10 -15 7
-18z m326 -57 c-9 -14 -23 2 -17 18 4 12 8 13 14 3 4 -7 5 -17 3 -21z m189
-33 c-3 -9 -8 -14 -10 -11 -3 3 -2 9 2 15 9 16 15 13 8 -4z m102 -54 c-2 -25
-18 -29 -20 -5 -1 11 4 21 10 21 6 0 11 -7 10 -16z"/>
<path d="M3437 3049 c7 -7 15 -10 18 -7 3 3 -2 9 -12 12 -14 6 -15 5 -6 -5z"/>
<path d="M2600 3040 c-13 -8 -12 -10 3 -10 9 0 17 5 17 10 0 12 -1 12 -20 0z"/>
<path d="M2773 3025 c0 -8 4 -12 9 -9 5 3 6 10 3 15 -9 13 -12 11 -12 -6z"/>
<path d="M6181 3014 c0 -11 3 -14 6 -6 3 7 2 16 -1 19 -3 4 -6 -2 -5 -13z"/>
<path d="M1027 2999 c7 -7 15 -10 18 -7 3 3 -2 9 -12 12 -14 6 -15 5 -6 -5z"/>
<path d="M2594 2985 c0 -19 3 -22 13 -13 10 8 10 14 2 24 -15 18 -15 18 -15
-11z"/>
<path d="M2770 2996 c0 -2 8 -10 18 -17 15 -13 16 -12 3 4 -13 16 -21 21 -21
13z"/>
<path d="M4606 2981 c-4 -5 -2 -12 3 -15 5 -4 12 -2 15 3 4 5 2 12 -3 15 -5 4
-12 2 -15 -3z"/>
<path d="M6310 2981 c0 -6 4 -12 8 -15 5 -3 9 1 9 9 0 8 -4 15 -9 15 -4 0 -8
-4 -8 -9z"/>
<path d="M1496 2972 c-2 -4 4 -8 14 -8 10 0 16 4 14 8 -3 4 -9 8 -14 8 -5 0
-11 -4 -14 -8z"/>
<path d="M6193 2945 c0 -8 5 -16 12 -18 6 -3 11 4 11 14 0 11 -5 19 -11 19 -7
0 -12 -7 -12 -15z"/>
<path d="M430 2938 c0 -4 4 -8 9 -8 6 0 12 4 15 8 3 5 -1 9 -9 9 -8 0 -15 -4
-15 -9z"/>
<path d="M5380 2946 c0 -2 8 -10 18 -17 15 -13 16 -12 3 4 -13 16 -21 21 -21
13z"/>
<path d="M6535 2940 c-3 -5 -3 -10 2 -10 4 0 1 -5 -7 -11 -12 -8 -12 -10 -1
-7 8 2 15 12 17 21 3 19 -2 22 -11 7z"/>
<path d="M1025 2885 c0 -42 2 -52 14 -47 12 4 12 7 2 10 -11 4 -11 6 0 13 12
7 11 9 -1 9 -13 0 -13 1 0 10 13 9 13 10 0 10 -13 0 -13 1 0 10 13 9 13 10 0
10 -12 0 -12 2 -2 9 11 7 11 9 0 13 -10 4 -13 -7 -13 -47z"/>
<path d="M3770 2931 c0 -6 4 -13 10 -16 6 -3 7 1 4 9 -7 18 -14 21 -14 7z"/>
<path d="M1695 2920 c3 -5 8 -10 11 -10 2 0 4 5 4 10 0 6 -5 10 -11 10 -5 0
-7 -4 -4 -10z"/>
<path d="M6055 2920 c3 -5 8 -10 11 -10 2 0 4 5 4 10 0 6 -5 10 -11 10 -5 0
-7 -4 -4 -10z"/>
<path d="M1382 2873 c3 -42 -3 -40 118 -44 51 -1 68 -6 78 -20 15 -22 38 -25
45 -6 4 10 6 10 6 0 1 -8 16 -13 41 -13 23 0 48 -7 60 -17 26 -22 96 -27 78
-6 -8 10 -8 17 -1 24 8 8 13 7 17 0 8 -12 27 -15 25 -3 -3 19 2 33 10 27 5 -3
12 -1 15 4 3 4 -2 8 -12 8 -71 0 -102 4 -97 13 3 6 1 10 -5 10 -6 0 -9 4 -6 8
3 5 -14 9 -37 11 -23 1 -45 7 -49 14 -6 9 -8 9 -8 0 0 -6 -14 -11 -34 -10 -33
1 -33 1 -13 17 16 14 17 17 4 17 -9 0 -14 -4 -11 -9 3 -4 0 -8 -5 -8 -6 0 -11
5 -11 10 0 6 -42 10 -106 10 l-105 0 3 -37z m193 9 c-3 -3 -11 0 -18 7 -9 10
-8 11 6 5 10 -3 15 -9 12 -12z m-141 -20 c3 -5 -1 -9 -9 -9 -8 0 -12 4 -9 9 3
4 7 8 9 8 2 0 6 -4 9 -8z m311 -11 c3 -5 0 -13 -6 -17 -8 -5 -9 -3 -4 6 6 10
4 12 -9 7 -10 -4 -15 -3 -11 3 8 13 22 13 30 1z m-132 -38 c-3 -6 -11 -9 -19
-6 -20 7 -17 19 5 19 11 0 17 -6 14 -13z m140 -35 c3 -10 7 -10 19 -1 12 10
15 10 15 0 0 -18 -33 -19 -48 -1 -7 9 -8 14 -1 14 6 0 12 -6 15 -12z"/>
<path d="M2202 2901 c4 -13 18 -16 19 -4 0 4 -5 9 -11 12 -7 2 -11 -2 -8 -8z"/>
<path d="M6245 2900 c3 -5 11 -10 16 -10 6 0 7 5 4 10 -3 6 -11 10 -16 10 -6
0 -7 -4 -4 -10z"/>
<path d="M7182 2901 c4 -13 18 -16 19 -4 0 4 -5 9 -11 12 -7 2 -11 -2 -8 -8z"/>
<path d="M4730 2885 c-11 -13 -10 -14 4 -9 9 3 16 10 16 15 0 13 -6 11 -20 -6z"/>
<path d="M5435 2880 c-3 -5 1 -10 10 -10 9 0 13 5 10 10 -3 6 -8 10 -10 10 -2
0 -7 -4 -10 -10z"/>
<path d="M2770 2876 c0 -2 8 -10 18 -17 15 -13 16 -12 3 4 -13 16 -21 21 -21
13z"/>
<path d="M4731 2856 c-9 -10 -8 -16 4 -26 10 -9 15 -9 15 -1 0 6 -5 11 -11 11
-8 0 -8 5 1 15 7 8 10 15 7 15 -2 0 -10 -6 -16 -14z"/>
<path d="M2594 2820 c0 -11 6 -22 12 -24 7 -3 10 3 7 15 -7 26 -19 32 -19 9z"/>
<path d="M1541 2811 c-8 -5 -9 -11 -3 -15 5 -3 12 1 16 9 6 17 6 18 -13 6z"/>
<path d="M4726 2805 c4 -8 11 -15 16 -15 6 0 5 6 -2 15 -7 8 -14 15 -16 15 -2
0 -1 -7 2 -15z"/>
<path d="M715 2800 c-3 -5 -1 -10 4 -10 6 0 11 5 11 10 0 6 -2 10 -4 10 -3 0
-8 -4 -11 -10z"/>
<path d="M2090 2800 c0 -5 5 -10 11 -10 5 0 7 5 4 10 -3 6 -8 10 -11 10 -2 0
-4 -4 -4 -10z"/>
<path d="M1855 2790 c9 -15 -15 -22 -30 -10 -18 15 -20 3 -2 -13 11 -12 74
-20 62 -9 -2 3 0 11 6 19 6 7 8 13 3 14 -5 0 -17 2 -27 4 -9 2 -15 -1 -12 -5z
m25 -4 c0 -2 -8 -10 -17 -17 -16 -13 -17 -12 -4 4 13 16 21 21 21 13z"/>
<path d="M1906 2774 c-9 -24 -7 -27 9 -10 17 17 19 26 6 26 -5 0 -12 -7 -15
-16z"/>
<path d="M873 2765 c0 -7 6 -12 13 -12 7 0 15 5 17 12 3 6 -3 11 -12 11 -10 0
-18 -5 -18 -11z"/>
<path d="M976 2773 c-12 -12 -5 -22 14 -20 11 1 20 4 20 8 0 10 -27 19 -34 12z"/>
<path d="M4450 2759 c0 -5 5 -7 10 -4 6 3 10 8 10 11 0 2 -4 4 -10 4 -5 0 -10
-5 -10 -11z"/>
<path d="M5170 2762 c0 -4 10 -9 22 -9 18 -2 20 0 8 7 -18 12 -30 13 -30 2z"/>
<path d="M5566 2762 c-3 -5 1 -9 9 -9 8 0 12 4 9 9 -3 4 -7 8 -9 8 -2 0 -6 -4
-9 -8z"/>
<path d="M3655 2640 c-3 -6 1 -7 9 -4 18 7 21 14 7 14 -6 0 -13 -4 -16 -10z"/>
</g>
</svg>
